%TF.GenerationSoftware,KiCad,Pcbnew,9.0.2*%
%TF.CreationDate,2025-06-10T14:23:58-07:00*%
%TF.ProjectId,LockerHacks Remake,4c6f636b-6572-4486-9163-6b732052656d,rev?*%
%TF.SameCoordinates,Original*%
%TF.FileFunction,Paste,Top*%
%TF.FilePolarity,Positive*%
%FSLAX46Y46*%
G04 Gerber Fmt 4.6, Leading zero omitted, Abs format (unit mm)*
G04 Created by KiCad (PCBNEW 9.0.2) date 2025-06-10 14:23:58*
%MOMM*%
%LPD*%
G01*
G04 APERTURE LIST*
G04 Aperture macros list*
%AMRoundRect*
0 Rectangle with rounded corners*
0 $1 Rounding radius*
0 $2 $3 $4 $5 $6 $7 $8 $9 X,Y pos of 4 corners*
0 Add a 4 corners polygon primitive as box body*
4,1,4,$2,$3,$4,$5,$6,$7,$8,$9,$2,$3,0*
0 Add four circle primitives for the rounded corners*
1,1,$1+$1,$2,$3*
1,1,$1+$1,$4,$5*
1,1,$1+$1,$6,$7*
1,1,$1+$1,$8,$9*
0 Add four rect primitives between the rounded corners*
20,1,$1+$1,$2,$3,$4,$5,0*
20,1,$1+$1,$4,$5,$6,$7,0*
20,1,$1+$1,$6,$7,$8,$9,0*
20,1,$1+$1,$8,$9,$2,$3,0*%
G04 Aperture macros list end*
%ADD10C,0.010000*%
%ADD11R,0.350000X0.500000*%
%ADD12C,1.100000*%
%ADD13R,0.300000X0.850000*%
%ADD14RoundRect,0.200000X-0.200000X-0.275000X0.200000X-0.275000X0.200000X0.275000X-0.200000X0.275000X0*%
%ADD15RoundRect,0.200000X-0.275000X0.200000X-0.275000X-0.200000X0.275000X-0.200000X0.275000X0.200000X0*%
%ADD16RoundRect,0.375000X-0.625000X-0.375000X0.625000X-0.375000X0.625000X0.375000X-0.625000X0.375000X0*%
%ADD17RoundRect,0.500000X-0.500000X-1.400000X0.500000X-1.400000X0.500000X1.400000X-0.500000X1.400000X0*%
%ADD18RoundRect,0.150000X-0.825000X-0.150000X0.825000X-0.150000X0.825000X0.150000X-0.825000X0.150000X0*%
%ADD19R,0.790000X0.280000*%
%ADD20R,0.280000X0.790000*%
%ADD21R,0.800000X0.800000*%
%ADD22R,0.800000X0.400000*%
%ADD23R,0.400000X0.800000*%
%ADD24R,1.200000X1.200000*%
%ADD25RoundRect,0.200000X0.275000X-0.200000X0.275000X0.200000X-0.275000X0.200000X-0.275000X-0.200000X0*%
%ADD26RoundRect,0.218750X-0.218750X-0.256250X0.218750X-0.256250X0.218750X0.256250X-0.218750X0.256250X0*%
%ADD27RoundRect,0.225000X0.250000X-0.225000X0.250000X0.225000X-0.250000X0.225000X-0.250000X-0.225000X0*%
%ADD28RoundRect,0.225000X-0.225000X-0.250000X0.225000X-0.250000X0.225000X0.250000X-0.225000X0.250000X0*%
%ADD29RoundRect,0.250000X-0.550000X1.050000X-0.550000X-1.050000X0.550000X-1.050000X0.550000X1.050000X0*%
G04 APERTURE END LIST*
D10*
%TO.C,U1*%
X113850000Y-85900000D02*
X112650000Y-85900000D01*
X112650000Y-85300000D01*
X113250000Y-84700000D01*
X113850000Y-84700000D01*
X113850000Y-85900000D01*
G36*
X113850000Y-85900000D02*
G01*
X112650000Y-85900000D01*
X112650000Y-85300000D01*
X113250000Y-84700000D01*
X113850000Y-84700000D01*
X113850000Y-85900000D01*
G37*
%TD*%
D11*
%TO.C,U3*%
X126000000Y-107900000D03*
X126650000Y-107900000D03*
X127300000Y-107900000D03*
X127950000Y-107900000D03*
X127950000Y-106300000D03*
X127300000Y-106300000D03*
X126650000Y-106300000D03*
X126000000Y-106300000D03*
%TD*%
D12*
%TO.C,J1*%
X117600000Y-67000000D03*
X117600000Y-62700000D03*
X112800000Y-67000000D03*
X112800000Y-62700000D03*
D13*
X112450000Y-65685000D03*
X112950000Y-65685000D03*
X113450000Y-65685000D03*
X113950000Y-65685000D03*
X114450000Y-65685000D03*
X114950000Y-65685000D03*
X115450000Y-65685000D03*
X115950000Y-65685000D03*
X116450000Y-65685000D03*
X116950000Y-65685000D03*
X117450000Y-65685000D03*
X117950000Y-65685000D03*
X117950000Y-64015000D03*
X117450000Y-64015000D03*
X116950000Y-64015000D03*
X116450000Y-64015000D03*
X115950000Y-64015000D03*
X115450000Y-64015000D03*
X114950000Y-64015000D03*
X114450000Y-64015000D03*
X113950000Y-64015000D03*
X113450000Y-64015000D03*
X112950000Y-64015000D03*
X112450000Y-64015000D03*
%TD*%
D14*
%TO.C,R8*%
X105850000Y-67400000D03*
X104200000Y-67400000D03*
%TD*%
D15*
%TO.C,R7*%
X120300000Y-73050000D03*
X120300000Y-71400000D03*
%TD*%
D16*
%TO.C,U5*%
X132100000Y-71900000D03*
X132100000Y-74200000D03*
D17*
X138400000Y-74200000D03*
D16*
X132100000Y-76500000D03*
%TD*%
D18*
%TO.C,U4*%
X133000000Y-82500000D03*
X133000000Y-83770000D03*
X133000000Y-85040000D03*
X133000000Y-86310000D03*
X133000000Y-87580000D03*
X133000000Y-88850000D03*
X133000000Y-90120000D03*
X133000000Y-91390000D03*
X137950000Y-91390000D03*
X137950000Y-90120000D03*
X137950000Y-88850000D03*
X137950000Y-87580000D03*
X137950000Y-86310000D03*
X137950000Y-85040000D03*
X137950000Y-83770000D03*
X137950000Y-82500000D03*
%TD*%
D19*
%TO.C,U2*%
X125110000Y-99350000D03*
X125110000Y-99850000D03*
X125110000Y-100350000D03*
X125110000Y-100850000D03*
X125110000Y-101350000D03*
X125110000Y-101850000D03*
D20*
X125830000Y-102570000D03*
X126330000Y-102570000D03*
X126830000Y-102570000D03*
X127330000Y-102570000D03*
X127830000Y-102570000D03*
X128330000Y-102570000D03*
D19*
X129050000Y-101850000D03*
X129050000Y-101350000D03*
X129050000Y-100850000D03*
X129050000Y-100350000D03*
X129050000Y-99850000D03*
X129050000Y-99350000D03*
D20*
X128330000Y-98630000D03*
X127830000Y-98630000D03*
X127330000Y-98630000D03*
X126830000Y-98630000D03*
X126330000Y-98630000D03*
X125830000Y-98630000D03*
%TD*%
D21*
%TO.C,U1*%
X107900000Y-79950000D03*
X107900000Y-93950000D03*
X121900000Y-79950000D03*
X121900000Y-93950000D03*
D22*
X107900000Y-81000000D03*
X107900000Y-81850000D03*
X107900000Y-82700000D03*
X107900000Y-83550000D03*
X107900000Y-84400000D03*
X107900000Y-85250000D03*
X107900000Y-86100000D03*
X107900000Y-86950000D03*
X107900000Y-87800000D03*
X107900000Y-88650000D03*
X107900000Y-89500000D03*
X107900000Y-90350000D03*
X107900000Y-91200000D03*
X107900000Y-92050000D03*
X107900000Y-92900000D03*
D23*
X108950000Y-93950000D03*
X109800000Y-93950000D03*
X110650000Y-93950000D03*
X111500000Y-93950000D03*
X112350000Y-93950000D03*
X113200000Y-93950000D03*
X114050000Y-93950000D03*
X114900000Y-93950000D03*
X115750000Y-93950000D03*
X116600000Y-93950000D03*
X117450000Y-93950000D03*
X118300000Y-93950000D03*
X119150000Y-93950000D03*
X120000000Y-93950000D03*
X120850000Y-93950000D03*
D22*
X121900000Y-92900000D03*
X121900000Y-92050000D03*
X121900000Y-91200000D03*
X121900000Y-90350000D03*
X121900000Y-89500000D03*
X121900000Y-88650000D03*
X121900000Y-87800000D03*
X121900000Y-86950000D03*
X121900000Y-86100000D03*
X121900000Y-85250000D03*
X121900000Y-84400000D03*
X121900000Y-83550000D03*
X121900000Y-82700000D03*
X121900000Y-81850000D03*
X121900000Y-81000000D03*
D23*
X120850000Y-79950000D03*
X120000000Y-79950000D03*
X119150000Y-79950000D03*
X118300000Y-79950000D03*
X117450000Y-79950000D03*
X116600000Y-79950000D03*
X115750000Y-79950000D03*
X114900000Y-79950000D03*
X114050000Y-79950000D03*
X113200000Y-79950000D03*
X112350000Y-79950000D03*
X111500000Y-79950000D03*
X110650000Y-79950000D03*
X109800000Y-79950000D03*
X108950000Y-79950000D03*
D24*
X114900000Y-86950000D03*
X114900000Y-85300000D03*
X116550000Y-85300000D03*
X116550000Y-86950000D03*
X116550000Y-88600000D03*
X114900000Y-88600000D03*
X113250000Y-88600000D03*
X113250000Y-86950000D03*
%TD*%
D14*
%TO.C,R11*%
X125837500Y-88000000D03*
X127487500Y-88000000D03*
%TD*%
D25*
%TO.C,R10*%
X106150000Y-85300000D03*
X106150000Y-83650000D03*
%TD*%
%TO.C,R6*%
X106200000Y-88350000D03*
X106200000Y-86700000D03*
%TD*%
D14*
%TO.C,R5*%
X121150000Y-105400000D03*
X122800000Y-105400000D03*
%TD*%
%TO.C,R4*%
X126150000Y-109200000D03*
X127800000Y-109200000D03*
%TD*%
%TO.C,R3*%
X124350000Y-94000000D03*
X126000000Y-94000000D03*
%TD*%
D25*
%TO.C,R2*%
X123730000Y-101355000D03*
X123730000Y-99705000D03*
%TD*%
D14*
%TO.C,R1*%
X105350000Y-99300000D03*
X107000000Y-99300000D03*
%TD*%
D26*
%TO.C,D1*%
X125912500Y-86500000D03*
X127487500Y-86500000D03*
%TD*%
D27*
%TO.C,C12*%
X108900000Y-72875000D03*
X108900000Y-71325000D03*
%TD*%
%TO.C,C11*%
X108900000Y-69850000D03*
X108900000Y-68300000D03*
%TD*%
D28*
%TO.C,C8*%
X136950000Y-81000000D03*
X138500000Y-81000000D03*
%TD*%
D27*
%TO.C,C7*%
X131000000Y-84250000D03*
X131000000Y-82700000D03*
%TD*%
%TO.C,C6*%
X106200000Y-82200000D03*
X106200000Y-80650000D03*
%TD*%
D28*
%TO.C,C5*%
X124825000Y-70600000D03*
X126375000Y-70600000D03*
%TD*%
D27*
%TO.C,C4*%
X130530000Y-101305000D03*
X130530000Y-99755000D03*
%TD*%
D29*
%TO.C,C2*%
X125400000Y-75500000D03*
X125400000Y-79100000D03*
%TD*%
D27*
%TO.C,C1*%
X106200000Y-91350000D03*
X106200000Y-89800000D03*
%TD*%
M02*
