%TF.GenerationSoftware,KiCad,Pcbnew,9.0.2*%
%TF.CreationDate,2025-06-10T14:23:58-07:00*%
%TF.ProjectId,LockerHacks Remake,4c6f636b-6572-4486-9163-6b732052656d,rev?*%
%TF.SameCoordinates,Original*%
%TF.FileFunction,Copper,L2,Bot*%
%TF.FilePolarity,Positive*%
%FSLAX46Y46*%
G04 Gerber Fmt 4.6, Leading zero omitted, Abs format (unit mm)*
G04 Created by KiCad (PCBNEW 9.0.2) date 2025-06-10 14:23:58*
%MOMM*%
%LPD*%
G01*
G04 APERTURE LIST*
%TA.AperFunction,HeatsinkPad*%
%ADD10C,1.100000*%
%TD*%
%TA.AperFunction,ComponentPad*%
%ADD11C,2.000000*%
%TD*%
%TA.AperFunction,ComponentPad*%
%ADD12C,1.440000*%
%TD*%
%TA.AperFunction,ComponentPad*%
%ADD13R,1.700000X1.700000*%
%TD*%
%TA.AperFunction,ComponentPad*%
%ADD14C,1.700000*%
%TD*%
%TA.AperFunction,ViaPad*%
%ADD15C,0.600000*%
%TD*%
%TA.AperFunction,Conductor*%
%ADD16C,0.200000*%
%TD*%
G04 APERTURE END LIST*
D10*
%TO.P,J1,S1,SHIELD*%
%TO.N,GND*%
X117600000Y-67000000D03*
X117600000Y-62700000D03*
X112800000Y-67000000D03*
X112800000Y-62700000D03*
%TD*%
D11*
%TO.P,SW2,1,1*%
%TO.N,Net-(J2-LEDK)*%
X111485000Y-96430000D03*
X117985000Y-96430000D03*
%TO.P,SW2,2,2*%
%TO.N,Net-(U1-IO0)*%
X111485000Y-100930000D03*
X117985000Y-100930000D03*
%TD*%
%TO.P,SW1,1,1*%
%TO.N,Net-(U1-EN)*%
X111485000Y-104130000D03*
X117985000Y-104130000D03*
%TO.P,SW1,2,2*%
%TO.N,Net-(J2-DB7)*%
X111485000Y-108630000D03*
X117985000Y-108630000D03*
%TD*%
D12*
%TO.P,RV1,1,1*%
%TO.N,Net-(J2-VDD)*%
X107300000Y-102620000D03*
%TO.P,RV1,2,2*%
%TO.N,Net-(J2-VO)*%
X107300000Y-105160000D03*
%TO.P,RV1,3,3*%
%TO.N,Net-(J2-LEDK)*%
X107300000Y-107700000D03*
%TD*%
D13*
%TO.P,J2,1,VSS*%
%TO.N,+3V3*%
X102800000Y-70335000D03*
D14*
%TO.P,J2,2,VDD*%
%TO.N,Net-(J2-VDD)*%
X102800000Y-72875000D03*
%TO.P,J2,3,VO*%
%TO.N,Net-(J2-VO)*%
X102800000Y-75415000D03*
%TO.P,J2,4,RS*%
%TO.N,Net-(J2-RS)*%
X102800000Y-77955000D03*
%TO.P,J2,5,R/W*%
%TO.N,Net-(J2-LEDK)*%
X102800000Y-80495000D03*
%TO.P,J2,6,E*%
%TO.N,Net-(J2-E)*%
X102800000Y-83035000D03*
%TO.P,J2,7,DB0*%
%TO.N,unconnected-(J2-DB0-Pad7)*%
X102800000Y-85575000D03*
%TO.P,J2,8,DB1*%
%TO.N,unconnected-(J2-DB1-Pad8)*%
X102800000Y-88115000D03*
%TO.P,J2,9,DB2*%
%TO.N,unconnected-(J2-DB2-Pad9)*%
X102800000Y-90655000D03*
%TO.P,J2,10,DB3*%
%TO.N,unconnected-(J2-DB3-Pad10)*%
X102800000Y-93195000D03*
%TO.P,J2,11,DB4*%
%TO.N,Net-(J2-DB4)*%
X102800000Y-95735000D03*
%TO.P,J2,12,DB5*%
%TO.N,Net-(J2-DB5)*%
X102800000Y-98275000D03*
%TO.P,J2,13,DB6*%
%TO.N,Net-(J2-DB6)*%
X102800000Y-100815000D03*
%TO.P,J2,14,DB7*%
%TO.N,Net-(J2-DB7)*%
X102800000Y-103355000D03*
%TO.P,J2,15,LEDA*%
%TO.N,Net-(J2-LEDA)*%
X102800000Y-105895000D03*
%TO.P,J2,16,LEDK*%
%TO.N,Net-(J2-LEDK)*%
X102800000Y-108435000D03*
%TD*%
D15*
%TO.N,Net-(J1-CC2)*%
X119300000Y-71600000D03*
X130300000Y-65600000D03*
X122300000Y-71800000D03*
X117800000Y-72500000D03*
X118159653Y-70440347D03*
%TO.N,GND*%
X105800000Y-65200000D03*
%TO.N,Net-(U4-UD+)*%
X114962700Y-70009571D03*
X123700000Y-70200000D03*
X121559653Y-73840347D03*
X123200000Y-71900000D03*
X121000000Y-63200000D03*
X121700000Y-70000000D03*
%TO.N,/+5V_USB*%
X111799998Y-65600000D03*
X113886183Y-64850000D03*
X108500000Y-62700000D03*
X109900000Y-66100000D03*
X110768657Y-65112055D03*
X127300000Y-68100000D03*
X130000000Y-67900000D03*
X126700000Y-66200700D03*
X124500000Y-66100000D03*
X121700000Y-66600000D03*
X115120657Y-69033128D03*
X113483740Y-67811130D03*
X112847435Y-68420936D03*
X114700000Y-73300000D03*
%TO.N,GND*%
X113100000Y-71900000D03*
X114420936Y-69420936D03*
%TO.N,Net-(J2-LEDK)*%
X110100000Y-82200000D03*
X103404700Y-86781998D03*
%TO.N,Net-(U2-SDA)*%
X125730000Y-97855167D03*
X123400000Y-97900000D03*
%TO.N,GND*%
X111500000Y-70451814D03*
X114200000Y-70900000D03*
%TO.N,/CH340_RTS*%
X106602589Y-82771615D03*
X129559100Y-82100000D03*
X132200000Y-80400000D03*
%TO.N,Net-(J2-LEDK)*%
X115200000Y-87300000D03*
%TO.N,+3V3*%
X128358183Y-78941817D03*
X105849600Y-76500000D03*
%TO.N,GND*%
X128400000Y-73100000D03*
X118581085Y-63771646D03*
X118557994Y-67121998D03*
X118800000Y-66200000D03*
%TO.N,Net-(J1-CC2)*%
X118600000Y-73300000D03*
X116400000Y-69300000D03*
%TO.N,GND*%
X120300000Y-68400000D03*
%TO.N,Net-(U4-UD-)*%
X116046528Y-63090001D03*
X111000000Y-62600000D03*
X111799998Y-64200000D03*
X130700000Y-88800000D03*
X114000000Y-67200000D03*
%TO.N,Net-(U4-UD+)*%
X110446006Y-69250814D03*
X114900000Y-67243400D03*
%TO.N,GND*%
X111800000Y-66801700D03*
%TO.N,/+5V_USB*%
X132400000Y-75450000D03*
X129775735Y-75675735D03*
%TO.N,Net-(J2-VDD)*%
X125600000Y-64900000D03*
%TO.N,/+5V_USB*%
X111511241Y-67730598D03*
X110053800Y-67387900D03*
%TO.N,Net-(U1-IO0)*%
X113099300Y-82492500D03*
X131000000Y-85455400D03*
%TO.N,/CH340_RTS*%
X133948600Y-81520100D03*
%TO.N,GND*%
X133313400Y-73073200D03*
X108632700Y-67230400D03*
X123911200Y-88011000D03*
X117660200Y-87385600D03*
%TO.N,Net-(U1-IO34)*%
X120460500Y-89572500D03*
X128412300Y-104825900D03*
%TO.N,Net-(U1-EN)*%
X108835300Y-105219600D03*
X106200000Y-78628600D03*
X123020100Y-81130400D03*
%TO.N,Net-(U3-SDI)*%
X124246700Y-104764300D03*
X127360200Y-105381900D03*
%TO.N,Net-(U3-SCK)*%
X129177500Y-102887800D03*
X130913100Y-102770700D03*
%TO.N,Net-(J2-DB6)*%
X119293400Y-97756800D03*
X124116900Y-106215000D03*
X128663000Y-107488500D03*
%TO.N,Net-(J2-RS)*%
X112310000Y-83837000D03*
%TO.N,+3V3*%
X105847900Y-71911600D03*
%TO.N,Net-(J2-E)*%
X109585800Y-85257000D03*
%TO.N,Net-(J2-DB4)*%
X108401100Y-95609200D03*
%TO.N,Net-(J2-DB5)*%
X111510800Y-92931600D03*
%TO.N,Net-(J2-VDD)*%
X106173200Y-101566900D03*
X121458500Y-103928700D03*
X100491800Y-100145300D03*
X121523300Y-71187700D03*
X106877400Y-92608200D03*
%TO.N,Net-(J2-LEDK)*%
X123310600Y-93239600D03*
X100712400Y-93747200D03*
X127007700Y-97058900D03*
X127300200Y-104413800D03*
X125652800Y-97058900D03*
%TD*%
D16*
%TO.N,GND*%
X118111996Y-67121998D02*
X116832327Y-65842329D01*
X116047943Y-64352057D02*
X117717831Y-64352057D01*
X118557994Y-67121998D02*
X118111996Y-67121998D01*
X116832327Y-65842329D02*
X116832327Y-65732327D01*
X116832327Y-65732327D02*
X115750000Y-64650000D01*
X115750000Y-64650000D02*
X116047943Y-64352057D01*
X117717831Y-64352057D02*
X118298242Y-63771646D01*
X118298242Y-63771646D02*
X118581085Y-63771646D01*
%TO.N,Net-(J1-CC2)*%
X133914400Y-69214400D02*
X133914400Y-73322143D01*
X117800000Y-70700000D02*
X116400000Y-69300000D01*
X130300000Y-65600000D02*
X133914400Y-69214400D01*
X133535543Y-73701000D02*
X124151057Y-73701000D01*
X122300000Y-71849943D02*
X122300000Y-71800000D01*
X119300000Y-71580694D02*
X118159653Y-70440347D01*
X124151057Y-73701000D02*
X122300000Y-71849943D01*
X119300000Y-71600000D02*
X119300000Y-71580694D01*
X133914400Y-73322143D02*
X133535543Y-73701000D01*
X117800000Y-72500000D02*
X117800000Y-70700000D01*
%TO.N,GND*%
X105800000Y-65200000D02*
X106909343Y-65200000D01*
X106909343Y-65200000D02*
X107229700Y-65520357D01*
%TO.N,Net-(U4-UD+)*%
X121700000Y-69700000D02*
X123000000Y-68400000D01*
X123000000Y-68400000D02*
X123049943Y-68400000D01*
X123049943Y-68400000D02*
X125101000Y-66348943D01*
X121499000Y-73901000D02*
X121559653Y-73840347D01*
X114962700Y-72187357D02*
X114099000Y-73051057D01*
X114451057Y-73901000D02*
X121499000Y-73901000D01*
X123200000Y-71900000D02*
X123200000Y-70700000D01*
X114962700Y-70009571D02*
X114962700Y-72187357D01*
X114099000Y-73548943D02*
X114451057Y-73901000D01*
X123200000Y-70700000D02*
X123700000Y-70200000D01*
X121700000Y-70000000D02*
X121700000Y-69700000D01*
X114099000Y-73051057D02*
X114099000Y-73548943D01*
X122449943Y-63200000D02*
X121000000Y-63200000D01*
X125101000Y-66348943D02*
X125101000Y-65851057D01*
X125101000Y-65851057D02*
X122449943Y-63200000D01*
%TO.N,/+5V_USB*%
X116375737Y-70288208D02*
X116375737Y-71624263D01*
X115120657Y-69033128D02*
X116375737Y-70288208D01*
X116375737Y-71624263D02*
X114700000Y-73300000D01*
%TO.N,GND*%
X114139507Y-69420936D02*
X113307629Y-70252814D01*
X114420936Y-69420936D02*
X114139507Y-69420936D01*
X110598063Y-70252814D02*
X106450600Y-74400277D01*
X113307629Y-70252814D02*
X110598063Y-70252814D01*
X106450600Y-74400277D02*
X107850877Y-73000000D01*
X107850877Y-73000000D02*
X109900000Y-73000000D01*
X109900000Y-73000000D02*
X111200000Y-71700000D01*
X112900000Y-71700000D02*
X113100000Y-71900000D01*
X111200000Y-71700000D02*
X112900000Y-71700000D01*
%TO.N,/+5V_USB*%
X113886183Y-64850000D02*
X112549998Y-64850000D01*
X112549998Y-64850000D02*
X111799998Y-65600000D01*
X109900000Y-66100000D02*
X109900000Y-65980712D01*
X109900000Y-65980712D02*
X110768657Y-65112055D01*
X127300000Y-66800700D02*
X127300000Y-68100000D01*
X126700000Y-66200700D02*
X127300000Y-66800700D01*
X121700000Y-66600000D02*
X121900000Y-66800000D01*
X121900000Y-66800000D02*
X123800000Y-66800000D01*
X123800000Y-66800000D02*
X124500000Y-66100000D01*
X112873934Y-68420936D02*
X113483740Y-67811130D01*
X112847435Y-68420936D02*
X112873934Y-68420936D01*
%TO.N,Net-(J2-LEDK)*%
X108921457Y-82200000D02*
X110100000Y-82200000D01*
X104418002Y-85768696D02*
X104418002Y-85327242D01*
X103404700Y-86781998D02*
X104418002Y-85768696D01*
X104418002Y-85327242D02*
X103276760Y-84186000D01*
X103276760Y-84186000D02*
X102323240Y-84186000D01*
X101649000Y-77478240D02*
X102323240Y-76804000D01*
X102323240Y-76804000D02*
X103525457Y-76804000D01*
X102323240Y-84186000D02*
X101649000Y-83511760D01*
X103525457Y-76804000D02*
X108921457Y-82200000D01*
X101649000Y-83511760D02*
X101649000Y-77478240D01*
%TO.N,Net-(U2-SDA)*%
X123400000Y-97900000D02*
X123500000Y-98000000D01*
X125585167Y-98000000D02*
X125730000Y-97855167D01*
X123500000Y-98000000D02*
X125585167Y-98000000D01*
%TO.N,GND*%
X110701000Y-70451814D02*
X111500000Y-70451814D01*
X106450600Y-74702214D02*
X110701000Y-70451814D01*
X106450600Y-76748943D02*
X106450600Y-74702214D01*
X109950877Y-70900000D02*
X114200000Y-70900000D01*
X105248600Y-76748943D02*
X105600657Y-77101000D01*
X106450600Y-76748943D02*
X106450600Y-74400277D01*
X106098543Y-77101000D02*
X106450600Y-76748943D01*
X107229700Y-65520357D02*
X107229700Y-72486977D01*
X106450600Y-74400277D02*
X109950877Y-70900000D01*
X105600657Y-77101000D02*
X106098543Y-77101000D01*
X107229700Y-72486977D02*
X105248600Y-74468077D01*
X128400000Y-66850057D02*
X122997943Y-61448000D01*
X122997943Y-61448000D02*
X111302057Y-61448000D01*
X105248600Y-74468077D02*
X105248600Y-76748943D01*
X128400000Y-73100000D02*
X128400000Y-66850057D01*
X111302057Y-61448000D02*
X107229700Y-65520357D01*
%TO.N,/CH340_RTS*%
X128700000Y-81500000D02*
X129300000Y-82100000D01*
X129300000Y-82100000D02*
X129559100Y-82100000D01*
X112498300Y-82741443D02*
X112498300Y-82243557D01*
X112498300Y-82243557D02*
X112850357Y-81891500D01*
X114194857Y-84438000D02*
X112498300Y-82741443D01*
X106602589Y-82771615D02*
X108268974Y-84438000D01*
X108268974Y-84438000D02*
X114194857Y-84438000D01*
X128308500Y-81891500D02*
X128700000Y-81500000D01*
X112850357Y-81891500D02*
X128308500Y-81891500D01*
X132200000Y-80400000D02*
X132828500Y-80400000D01*
X132828500Y-80400000D02*
X133948600Y-81520100D01*
%TO.N,Net-(J2-LEDK)*%
X115200000Y-87300000D02*
X115200000Y-90368000D01*
X115200000Y-90368000D02*
X113561500Y-92006500D01*
%TO.N,+3V3*%
X120901000Y-65241618D02*
X120901000Y-71484634D01*
X118830028Y-63170646D02*
X120901000Y-65241618D01*
X117551731Y-63951057D02*
X118332142Y-63170646D01*
X110847057Y-63599000D02*
X112048941Y-63599000D01*
X118332142Y-63170646D02*
X118830028Y-63170646D01*
X112400998Y-63951057D02*
X117551731Y-63951057D01*
X105849600Y-74434177D02*
X107630700Y-72653077D01*
X107630700Y-72653077D02*
X107630700Y-66815357D01*
X112048941Y-63599000D02*
X112400998Y-63951057D01*
X105849600Y-76500000D02*
X105849600Y-74434177D01*
X120901000Y-71484634D02*
X128358183Y-78941817D01*
X107630700Y-66815357D02*
X110847057Y-63599000D01*
%TO.N,GND*%
X128400000Y-71190900D02*
X131090800Y-68500100D01*
X128400000Y-73100000D02*
X128400000Y-71190900D01*
%TO.N,/+5V_USB*%
X110067600Y-67401700D02*
X110053800Y-67387900D01*
X111511241Y-67730598D02*
X111182343Y-67401700D01*
X111182343Y-67401700D02*
X110067600Y-67401700D01*
%TO.N,GND*%
X118000000Y-67000000D02*
X118800000Y-66200000D01*
X117600000Y-67000000D02*
X118000000Y-67000000D01*
%TO.N,Net-(J1-CC2)*%
X116400000Y-69300000D02*
X118500000Y-71400000D01*
X118500000Y-71800000D02*
X118600000Y-71900000D01*
X118500000Y-71400000D02*
X118500000Y-71800000D01*
X118600000Y-71900000D02*
X118600000Y-73300000D01*
%TO.N,GND*%
X117600000Y-67000000D02*
X119000000Y-68400000D01*
X119000000Y-68400000D02*
X120300000Y-68400000D01*
%TO.N,Net-(U4-UD-)*%
X114805527Y-61849000D02*
X116046528Y-63090001D01*
X111751000Y-61849000D02*
X114805527Y-61849000D01*
X111000000Y-62600000D02*
X111751000Y-61849000D01*
X114557600Y-66642400D02*
X115148943Y-66642400D01*
X110813157Y-64200000D02*
X111799998Y-64200000D01*
X115148943Y-66642400D02*
X115501000Y-66994457D01*
X115501000Y-67492343D02*
X113141529Y-69851814D01*
X114000000Y-67200000D02*
X114557600Y-66642400D01*
X115501000Y-66994457D02*
X115501000Y-67492343D01*
X110197063Y-69851814D02*
X108031700Y-67686451D01*
X113141529Y-69851814D02*
X110197063Y-69851814D01*
X108031700Y-67686451D02*
X108031700Y-66981457D01*
X108031700Y-66981457D02*
X110813157Y-64200000D01*
X114000000Y-67200000D02*
X114299000Y-67200000D01*
X115148943Y-66642400D02*
X115210236Y-66703693D01*
X114299000Y-66994457D02*
X114651057Y-66642400D01*
X114651057Y-66642400D02*
X115148943Y-66642400D01*
X114299000Y-67200000D02*
X114299000Y-66994457D01*
X115210236Y-66703693D02*
X115210236Y-66642400D01*
X115210236Y-66642400D02*
X131601000Y-83033164D01*
X131601000Y-83033164D02*
X131601000Y-87899000D01*
X131601000Y-87899000D02*
X130700000Y-88800000D01*
%TO.N,GND*%
X117600000Y-67000000D02*
X116134936Y-67000000D01*
X113456600Y-66893457D02*
X113363843Y-66800700D01*
X116134936Y-67000000D02*
X115376336Y-66241400D01*
X113751057Y-66599000D02*
X113456600Y-66893457D01*
X115376336Y-66241400D02*
X114391500Y-66241400D01*
X114391500Y-66241400D02*
X114033900Y-66599000D01*
X114033900Y-66599000D02*
X113751057Y-66599000D01*
X113363843Y-66800700D02*
X112865957Y-66800700D01*
X112865957Y-66800700D02*
X112733328Y-66933329D01*
%TO.N,Net-(U4-UD+)*%
X112892586Y-69250814D02*
X110446006Y-69250814D01*
X114900000Y-67243400D02*
X112892586Y-69250814D01*
%TO.N,GND*%
X111785200Y-66786900D02*
X111800000Y-66801700D01*
X109804857Y-66786900D02*
X111785200Y-66786900D01*
X109452800Y-67138957D02*
X109804857Y-66786900D01*
X109452800Y-68050500D02*
X109452800Y-67138957D01*
X109902300Y-68500000D02*
X109452800Y-68050500D01*
%TO.N,/+5V_USB*%
X129775735Y-75675735D02*
X130001470Y-75450000D01*
X130001470Y-75450000D02*
X132400000Y-75450000D01*
%TO.N,Net-(J2-VDD)*%
X125600000Y-64900000D02*
X125600000Y-67111000D01*
X125600000Y-67111000D02*
X121523300Y-71187700D01*
%TO.N,Net-(U1-IO0)*%
X117985000Y-100930000D02*
X111485000Y-100930000D01*
X128037100Y-82492500D02*
X131000000Y-85455400D01*
X113099300Y-82492500D02*
X128037100Y-82492500D01*
%TO.N,GND*%
X109902300Y-68500000D02*
X108632700Y-67230400D01*
X118285500Y-88010900D02*
X117660200Y-87385600D01*
X118285500Y-88011000D02*
X118285500Y-88010900D01*
X123911200Y-88011000D02*
X118285500Y-88011000D01*
X133313400Y-70722700D02*
X131090800Y-68500100D01*
X133313400Y-73073200D02*
X133313400Y-70722700D01*
%TO.N,Net-(U1-IO34)*%
X120582500Y-89572500D02*
X120460500Y-89572500D01*
X128412300Y-97402300D02*
X120582500Y-89572500D01*
X128412300Y-104825900D02*
X128412300Y-97402300D01*
%TO.N,Net-(U1-EN)*%
X117985000Y-104130000D02*
X111485000Y-104130000D01*
X109924900Y-104130000D02*
X108835300Y-105219600D01*
X111485000Y-104130000D02*
X109924900Y-104130000D01*
X108618200Y-81130400D02*
X123020100Y-81130400D01*
X106200000Y-78712200D02*
X108618200Y-81130400D01*
X106200000Y-78628600D02*
X106200000Y-78712200D01*
%TO.N,Net-(U3-SDI)*%
X124864300Y-105381900D02*
X127360200Y-105381900D01*
X124246700Y-104764300D02*
X124864300Y-105381900D01*
%TO.N,Net-(U3-SCK)*%
X130796000Y-102887800D02*
X130913100Y-102770700D01*
X129177500Y-102887800D02*
X130796000Y-102887800D01*
%TO.N,Net-(J2-DB7)*%
X117985000Y-108630000D02*
X111485000Y-108630000D01*
X109285600Y-106430600D02*
X111485000Y-108630000D01*
X105875600Y-106430600D02*
X109285600Y-106430600D01*
X102800000Y-103355000D02*
X105875600Y-106430600D01*
%TO.N,Net-(J2-DB6)*%
X119293400Y-101461400D02*
X119302300Y-101470300D01*
X119293400Y-97756800D02*
X119293400Y-101461400D01*
X119851000Y-101470300D02*
X119302300Y-101470300D01*
X124116900Y-105736200D02*
X119851000Y-101470300D01*
X124116900Y-106215000D02*
X124116900Y-105736200D01*
X107597800Y-100815000D02*
X102800000Y-100815000D01*
X109037100Y-102254300D02*
X107597800Y-100815000D01*
X118518300Y-102254300D02*
X109037100Y-102254300D01*
X119302300Y-101470300D02*
X118518300Y-102254300D01*
X125390400Y-107488500D02*
X128663000Y-107488500D01*
X124116900Y-106215000D02*
X125390400Y-107488500D01*
%TO.N,Net-(J2-RS)*%
X108682000Y-83837000D02*
X112310000Y-83837000D01*
X102800000Y-77955000D02*
X108682000Y-83837000D01*
%TO.N,+3V3*%
X102800000Y-70335000D02*
X102800000Y-71486700D01*
X105604500Y-71911600D02*
X105606100Y-71911600D01*
X103489400Y-74026700D02*
X105604500Y-71911600D01*
X102323000Y-74026700D02*
X103489400Y-74026700D01*
X101648300Y-73352000D02*
X102323000Y-74026700D01*
X101648300Y-72398000D02*
X101648300Y-73352000D01*
X102559600Y-71486700D02*
X101648300Y-72398000D01*
X102800000Y-71486700D02*
X102559600Y-71486700D01*
X105606100Y-71911600D02*
X105847900Y-71911600D01*
%TO.N,Net-(J2-E)*%
X105022000Y-85257000D02*
X102800000Y-83035000D01*
X109585800Y-85257000D02*
X105022000Y-85257000D01*
%TO.N,Net-(J2-DB4)*%
X102925800Y-95609200D02*
X102800000Y-95735000D01*
X108401100Y-95609200D02*
X102925800Y-95609200D01*
%TO.N,Net-(J2-DB5)*%
X106586200Y-98275000D02*
X102800000Y-98275000D01*
X111510800Y-93350400D02*
X106586200Y-98275000D01*
X111510800Y-92931600D02*
X111510800Y-93350400D01*
%TO.N,Net-(J2-VDD)*%
X107424900Y-102744900D02*
X107300000Y-102620000D01*
X120274700Y-102744900D02*
X107424900Y-102744900D01*
X121458500Y-103928700D02*
X120274700Y-102744900D01*
X106504900Y-101898600D02*
X106173200Y-101566900D01*
X106578700Y-101898600D02*
X106504900Y-101898600D01*
X106578700Y-101898700D02*
X106578700Y-101898600D01*
X107300000Y-102620000D02*
X106578700Y-101898700D01*
X102314300Y-101967800D02*
X100491800Y-100145300D01*
X105772300Y-101967800D02*
X102314300Y-101967800D01*
X106173200Y-101566900D02*
X105772300Y-101967800D01*
X100491800Y-96397900D02*
X100491800Y-100145300D01*
X102543000Y-94346700D02*
X100491800Y-96397900D01*
X105138900Y-94346700D02*
X102543000Y-94346700D01*
X106877400Y-92608200D02*
X105138900Y-94346700D01*
%TO.N,Net-(J2-LEDK)*%
X106565000Y-108435000D02*
X102800000Y-108435000D01*
X107300000Y-107700000D02*
X106565000Y-108435000D01*
X117985000Y-96430000D02*
X111485000Y-96430000D01*
X127300200Y-97351400D02*
X127007700Y-97058900D01*
X127300200Y-104413800D02*
X127300200Y-97351400D01*
X123310600Y-96430000D02*
X123310600Y-93239600D01*
X123310600Y-96430000D02*
X117985000Y-96430000D01*
X100712400Y-93650600D02*
X100712400Y-93747200D01*
X102356500Y-92006500D02*
X100712400Y-93650600D01*
X113561500Y-92006500D02*
X102356500Y-92006500D01*
X117985000Y-96430000D02*
X113561500Y-92006500D01*
X127007700Y-97058900D02*
X125652800Y-97058900D01*
X123939500Y-97058900D02*
X123310600Y-96430000D01*
X125652800Y-97058900D02*
X123939500Y-97058900D01*
%TO.N,/+5V_USB*%
X114100000Y-60800000D02*
X110400000Y-60800000D01*
X130000000Y-67882957D02*
X122917043Y-60800000D01*
X130000000Y-67900000D02*
X130000000Y-67882957D01*
X122917043Y-60800000D02*
X114100000Y-60800000D01*
X110400000Y-60800000D02*
X108500000Y-62700000D01*
%TD*%
%TA.AperFunction,Conductor*%
%TO.N,GND*%
G36*
X108436403Y-68940835D02*
G01*
X108442879Y-68946865D01*
X109828347Y-70332334D01*
X109828349Y-70332335D01*
X109828353Y-70332338D01*
X109965272Y-70411387D01*
X109965275Y-70411389D01*
X109965279Y-70411391D01*
X110118006Y-70452315D01*
X110118008Y-70452315D01*
X110283717Y-70452315D01*
X110283733Y-70452314D01*
X113054860Y-70452314D01*
X113054876Y-70452315D01*
X113062472Y-70452315D01*
X113220583Y-70452315D01*
X113220586Y-70452315D01*
X113373314Y-70411391D01*
X113434131Y-70376278D01*
X113510245Y-70332334D01*
X113622049Y-70220530D01*
X113622049Y-70220528D01*
X113632253Y-70210325D01*
X113632257Y-70210320D01*
X113950519Y-69892058D01*
X114011842Y-69858573D01*
X114081534Y-69863557D01*
X114137467Y-69905429D01*
X114161884Y-69970893D01*
X114162200Y-69979739D01*
X114162200Y-70088417D01*
X114192961Y-70243060D01*
X114192964Y-70243072D01*
X114253302Y-70388743D01*
X114253309Y-70388756D01*
X114341302Y-70520445D01*
X114362180Y-70587122D01*
X114362200Y-70589336D01*
X114362200Y-71887259D01*
X114342515Y-71954298D01*
X114325881Y-71974940D01*
X113618481Y-72682339D01*
X113618479Y-72682342D01*
X113581189Y-72746932D01*
X113581188Y-72746934D01*
X113539423Y-72819271D01*
X113539423Y-72819272D01*
X113498499Y-72972000D01*
X113498499Y-72972002D01*
X113498499Y-73140103D01*
X113498500Y-73140116D01*
X113498500Y-73462273D01*
X113498499Y-73462291D01*
X113498499Y-73627997D01*
X113498498Y-73627997D01*
X113523343Y-73720717D01*
X113539423Y-73780728D01*
X113553596Y-73805276D01*
X113618480Y-73917659D01*
X113671554Y-73970733D01*
X113677617Y-73979285D01*
X113685704Y-74002811D01*
X113697625Y-74024642D01*
X113696864Y-74035275D01*
X113700331Y-74045359D01*
X113694415Y-74069521D01*
X113692641Y-74094334D01*
X113686251Y-74102869D01*
X113683716Y-74113225D01*
X113665676Y-74130353D01*
X113650769Y-74150267D01*
X113640779Y-74153992D01*
X113633048Y-74161334D01*
X113608612Y-74165990D01*
X113585305Y-74174684D01*
X113576459Y-74175000D01*
X107257374Y-74175000D01*
X107190335Y-74155315D01*
X107144580Y-74102511D01*
X107134636Y-74033353D01*
X107163661Y-73969797D01*
X107169693Y-73963319D01*
X107215353Y-73917659D01*
X108111220Y-73021793D01*
X108190277Y-72884861D01*
X108231201Y-72732134D01*
X108231201Y-72574019D01*
X108231201Y-72566424D01*
X108231200Y-72566406D01*
X108231200Y-69034548D01*
X108250885Y-68967509D01*
X108303689Y-68921754D01*
X108372847Y-68911810D01*
X108436403Y-68940835D01*
G37*
%TD.AperFunction*%
%TA.AperFunction,Conductor*%
G36*
X118624418Y-63830117D02*
G01*
X118668765Y-63858618D01*
X119057966Y-64247819D01*
X119091451Y-64309142D01*
X119086467Y-64378834D01*
X119044595Y-64434767D01*
X118979131Y-64459184D01*
X118970285Y-64459500D01*
X118688590Y-64459500D01*
X118589272Y-64486112D01*
X118589269Y-64486113D01*
X118500230Y-64537519D01*
X118500225Y-64537523D01*
X118427523Y-64610225D01*
X118427519Y-64610230D01*
X118376113Y-64699269D01*
X118376112Y-64699272D01*
X118349500Y-64798590D01*
X118349500Y-64901410D01*
X118370079Y-64978210D01*
X118376112Y-65000727D01*
X118376113Y-65000730D01*
X118427519Y-65089769D01*
X118427521Y-65089772D01*
X118427522Y-65089773D01*
X118500227Y-65162478D01*
X118500228Y-65162479D01*
X118500230Y-65162480D01*
X118500372Y-65162562D01*
X118589272Y-65213888D01*
X118688590Y-65240500D01*
X118688592Y-65240500D01*
X119211408Y-65240500D01*
X119211410Y-65240500D01*
X119310728Y-65213888D01*
X119399773Y-65162478D01*
X119472478Y-65089773D01*
X119523888Y-65000728D01*
X119528947Y-64981844D01*
X119565310Y-64922185D01*
X119628156Y-64891654D01*
X119697532Y-64899948D01*
X119736403Y-64926256D01*
X120264181Y-65454034D01*
X120297666Y-65515357D01*
X120300500Y-65541715D01*
X120300500Y-70584066D01*
X120280815Y-70651105D01*
X120228011Y-70696860D01*
X120158853Y-70706804D01*
X120095297Y-70677779D01*
X120088819Y-70671747D01*
X118880207Y-69463135D01*
X117670322Y-68253251D01*
X117636838Y-68191929D01*
X117641822Y-68122237D01*
X117683694Y-68066304D01*
X117733814Y-68043953D01*
X117906274Y-68009649D01*
X118097366Y-67930495D01*
X118145066Y-67898621D01*
X118145067Y-67898620D01*
X117596446Y-67350000D01*
X117646078Y-67350000D01*
X117735095Y-67326148D01*
X117814905Y-67280070D01*
X117880070Y-67214905D01*
X117926148Y-67135095D01*
X117950000Y-67046078D01*
X117950000Y-66999999D01*
X117953554Y-66999999D01*
X117953554Y-67000001D01*
X118498620Y-67545067D01*
X118498621Y-67545066D01*
X118530495Y-67497366D01*
X118609649Y-67306274D01*
X118609651Y-67306266D01*
X118649999Y-67103420D01*
X118650000Y-67103417D01*
X118650000Y-66896583D01*
X118649999Y-66896579D01*
X118609651Y-66693733D01*
X118609649Y-66693725D01*
X118530498Y-66502639D01*
X118530495Y-66502633D01*
X118498621Y-66454932D01*
X118498620Y-66454931D01*
X117953554Y-66999999D01*
X117950000Y-66999999D01*
X117950000Y-66953922D01*
X117926148Y-66864905D01*
X117880070Y-66785095D01*
X117814905Y-66719930D01*
X117735095Y-66673852D01*
X117646078Y-66650000D01*
X117553922Y-66650000D01*
X117464905Y-66673852D01*
X117385095Y-66719930D01*
X117319930Y-66785095D01*
X117273852Y-66864905D01*
X117250000Y-66953922D01*
X117250000Y-67003554D01*
X116701378Y-66454932D01*
X116701377Y-66454932D01*
X116669505Y-66502631D01*
X116669500Y-66502641D01*
X116590350Y-66693725D01*
X116590348Y-66693733D01*
X116556045Y-66866186D01*
X116523660Y-66928097D01*
X116462945Y-66962671D01*
X116393175Y-66958932D01*
X116346747Y-66929676D01*
X115697825Y-66280754D01*
X115690756Y-66273685D01*
X115690756Y-66273684D01*
X115578952Y-66161880D01*
X115480910Y-66105276D01*
X115480909Y-66105275D01*
X115474157Y-66101377D01*
X117054932Y-66101377D01*
X117054932Y-66101378D01*
X117600000Y-66646446D01*
X117600001Y-66646446D01*
X118145067Y-66101378D01*
X118145067Y-66101377D01*
X118097359Y-66069500D01*
X117906274Y-65990350D01*
X117906266Y-65990348D01*
X117703420Y-65950000D01*
X117496579Y-65950000D01*
X117293733Y-65990348D01*
X117293725Y-65990350D01*
X117102641Y-66069500D01*
X117102631Y-66069505D01*
X117054932Y-66101377D01*
X115474157Y-66101377D01*
X115446379Y-66085339D01*
X115442021Y-66082823D01*
X115442020Y-66082822D01*
X115442019Y-66082822D01*
X115386117Y-66067843D01*
X115289293Y-66041899D01*
X115228000Y-66041899D01*
X115069886Y-66041899D01*
X115062290Y-66041899D01*
X115062274Y-66041900D01*
X114730119Y-66041900D01*
X114730115Y-66041899D01*
X114572000Y-66041899D01*
X114571996Y-66041900D01*
X114478540Y-66041900D01*
X114437619Y-66052864D01*
X114437619Y-66052865D01*
X114421874Y-66057084D01*
X114325814Y-66082823D01*
X114325809Y-66082826D01*
X114188890Y-66161875D01*
X114188882Y-66161881D01*
X114077080Y-66273683D01*
X114077080Y-66273684D01*
X114077078Y-66273686D01*
X114024023Y-66326740D01*
X113985337Y-66365427D01*
X113924013Y-66398911D01*
X113921848Y-66399362D01*
X113766504Y-66430262D01*
X113766498Y-66430264D01*
X113734035Y-66443709D01*
X113734036Y-66443710D01*
X113669950Y-66470254D01*
X113669949Y-66470256D01*
X113620821Y-66490606D01*
X113620814Y-66490609D01*
X113489711Y-66578210D01*
X113489707Y-66578213D01*
X113378213Y-66689707D01*
X113378210Y-66689711D01*
X113290609Y-66820814D01*
X113290606Y-66820821D01*
X113270256Y-66869949D01*
X113243376Y-66910176D01*
X113150000Y-67003552D01*
X113150000Y-66953922D01*
X113126148Y-66864905D01*
X113080070Y-66785095D01*
X113014905Y-66719930D01*
X112935095Y-66673852D01*
X112846078Y-66650000D01*
X112796444Y-66650000D01*
X113345067Y-66101377D01*
X113297359Y-66069500D01*
X113106274Y-65990350D01*
X113106266Y-65990348D01*
X112903420Y-65950000D01*
X112697656Y-65950000D01*
X112677442Y-65944064D01*
X112656403Y-65942937D01*
X112644588Y-65934417D01*
X112630617Y-65930315D01*
X112616823Y-65914396D01*
X112599731Y-65902071D01*
X112594397Y-65888515D01*
X112584862Y-65877511D01*
X112581863Y-65856658D01*
X112574150Y-65837053D01*
X112575479Y-65812255D01*
X112574918Y-65808353D01*
X112576039Y-65801809D01*
X112600636Y-65678150D01*
X112633021Y-65616239D01*
X112634465Y-65614767D01*
X112762416Y-65486816D01*
X112823737Y-65453334D01*
X112850095Y-65450500D01*
X113306417Y-65450500D01*
X113373456Y-65470185D01*
X113375308Y-65471398D01*
X113506997Y-65559390D01*
X113507010Y-65559397D01*
X113644241Y-65616239D01*
X113652686Y-65619737D01*
X113798468Y-65648735D01*
X113807336Y-65650499D01*
X113807339Y-65650500D01*
X113807341Y-65650500D01*
X113965027Y-65650500D01*
X113965028Y-65650499D01*
X114119680Y-65619737D01*
X114265362Y-65559394D01*
X114396472Y-65471789D01*
X114507972Y-65360289D01*
X114595577Y-65229179D01*
X114599037Y-65220827D01*
X114653346Y-65089711D01*
X114655920Y-65083497D01*
X114686683Y-64928842D01*
X114686683Y-64771158D01*
X114686683Y-64771155D01*
X114672479Y-64699749D01*
X114678706Y-64630157D01*
X114721569Y-64574980D01*
X114787458Y-64551735D01*
X114794096Y-64551557D01*
X117465062Y-64551557D01*
X117465078Y-64551558D01*
X117472674Y-64551558D01*
X117630785Y-64551558D01*
X117630788Y-64551558D01*
X117783516Y-64510634D01*
X117834351Y-64481284D01*
X117920447Y-64431577D01*
X118032251Y-64319773D01*
X118032251Y-64319771D01*
X118042455Y-64309568D01*
X118042458Y-64309563D01*
X118493407Y-63858615D01*
X118554726Y-63825133D01*
X118624418Y-63830117D01*
G37*
%TD.AperFunction*%
%TA.AperFunction,Conductor*%
G36*
X110741472Y-68021885D02*
G01*
X110787227Y-68074689D01*
X110788994Y-68078748D01*
X110801843Y-68109770D01*
X110801850Y-68109783D01*
X110889451Y-68240886D01*
X110889454Y-68240890D01*
X111000948Y-68352384D01*
X111000952Y-68352387D01*
X111106948Y-68423212D01*
X111128695Y-68449233D01*
X111150851Y-68474803D01*
X111151014Y-68475940D01*
X111151753Y-68476824D01*
X111155974Y-68510436D01*
X111160795Y-68543961D01*
X111160316Y-68545008D01*
X111160460Y-68546149D01*
X111145851Y-68576682D01*
X111131770Y-68607517D01*
X111130801Y-68608139D01*
X111130305Y-68609177D01*
X111101492Y-68626974D01*
X111072992Y-68645291D01*
X111071492Y-68645506D01*
X111070862Y-68645896D01*
X111038057Y-68650314D01*
X111025772Y-68650314D01*
X110958733Y-68630629D01*
X110956881Y-68629416D01*
X110825191Y-68541423D01*
X110825178Y-68541416D01*
X110679507Y-68481078D01*
X110679495Y-68481075D01*
X110524851Y-68450314D01*
X110524848Y-68450314D01*
X110367164Y-68450314D01*
X110367161Y-68450314D01*
X110212516Y-68481075D01*
X110212504Y-68481078D01*
X110066833Y-68541416D01*
X110066820Y-68541423D01*
X109953067Y-68617431D01*
X109886389Y-68638309D01*
X109819009Y-68619824D01*
X109796495Y-68602010D01*
X109411103Y-68216618D01*
X109377618Y-68155295D01*
X109382602Y-68085603D01*
X109424474Y-68029670D01*
X109489938Y-68005253D01*
X109558211Y-68020105D01*
X109567675Y-68025835D01*
X109674614Y-68097290D01*
X109674627Y-68097297D01*
X109801064Y-68149668D01*
X109820303Y-68157637D01*
X109974953Y-68188399D01*
X109974956Y-68188400D01*
X109974958Y-68188400D01*
X110132644Y-68188400D01*
X110132645Y-68188399D01*
X110287297Y-68157637D01*
X110432979Y-68097294D01*
X110479892Y-68065948D01*
X110544022Y-68023098D01*
X110562068Y-68017447D01*
X110577978Y-68007223D01*
X110608939Y-68002771D01*
X110610700Y-68002220D01*
X110612913Y-68002200D01*
X110674433Y-68002200D01*
X110741472Y-68021885D01*
G37*
%TD.AperFunction*%
%TA.AperFunction,Conductor*%
G36*
X109280572Y-66654417D02*
G01*
X109308489Y-66656414D01*
X109315815Y-66661122D01*
X109321714Y-66662245D01*
X109350512Y-66682650D01*
X109351687Y-66683765D01*
X109389711Y-66721789D01*
X109396622Y-66726406D01*
X109404297Y-66733690D01*
X109439376Y-66794115D01*
X109436217Y-66863913D01*
X109422043Y-66892526D01*
X109344412Y-67008709D01*
X109344402Y-67008727D01*
X109284064Y-67154398D01*
X109284061Y-67154410D01*
X109253300Y-67309053D01*
X109253300Y-67466746D01*
X109284061Y-67621389D01*
X109284064Y-67621401D01*
X109344402Y-67767072D01*
X109344409Y-67767085D01*
X109415864Y-67874024D01*
X109436742Y-67940701D01*
X109418258Y-68008082D01*
X109366279Y-68054772D01*
X109297309Y-68065948D01*
X109233245Y-68038063D01*
X109225081Y-68030596D01*
X108668519Y-67474034D01*
X108635034Y-67412711D01*
X108632200Y-67386353D01*
X108632200Y-67281553D01*
X108651885Y-67214514D01*
X108668515Y-67193876D01*
X109177477Y-66684913D01*
X109183983Y-66681361D01*
X109188272Y-66675308D01*
X109214235Y-66664842D01*
X109238798Y-66651430D01*
X109246195Y-66651959D01*
X109253075Y-66649186D01*
X109280572Y-66654417D01*
G37*
%TD.AperFunction*%
%TA.AperFunction,Conductor*%
G36*
X111016386Y-65899031D02*
G01*
X111071563Y-65941894D01*
X111085546Y-65966969D01*
X111090600Y-65979172D01*
X111090607Y-65979185D01*
X111178208Y-66110288D01*
X111178211Y-66110292D01*
X111289705Y-66221786D01*
X111289709Y-66221789D01*
X111420812Y-66309390D01*
X111420825Y-66309397D01*
X111566496Y-66369735D01*
X111566501Y-66369737D01*
X111713168Y-66398911D01*
X111721151Y-66400499D01*
X111721154Y-66400500D01*
X111726229Y-66400500D01*
X111793268Y-66420185D01*
X111839023Y-66472989D01*
X111848967Y-66542147D01*
X111840790Y-66571953D01*
X111790350Y-66693725D01*
X111790348Y-66693733D01*
X111761691Y-66837803D01*
X111758050Y-66844761D01*
X111757781Y-66852613D01*
X111742085Y-66875283D01*
X111729306Y-66899714D01*
X111722480Y-66903600D01*
X111718009Y-66910059D01*
X111692549Y-66920645D01*
X111668591Y-66934288D01*
X111659111Y-66934548D01*
X111653494Y-66936884D01*
X111622955Y-66935540D01*
X111618221Y-66935671D01*
X111617011Y-66935454D01*
X111590083Y-66930098D01*
X111587093Y-66930098D01*
X111578609Y-66928579D01*
X111568630Y-66923600D01*
X111538463Y-66913908D01*
X111452402Y-66864221D01*
X111452401Y-66864220D01*
X111414126Y-66842122D01*
X111358224Y-66827143D01*
X111261400Y-66801199D01*
X111103286Y-66801199D01*
X111095690Y-66801199D01*
X111095674Y-66801200D01*
X110650541Y-66801200D01*
X110626578Y-66794163D01*
X110601780Y-66791210D01*
X110590475Y-66783562D01*
X110583502Y-66781515D01*
X110571635Y-66772855D01*
X110567054Y-66769076D01*
X110564089Y-66766111D01*
X110560775Y-66763897D01*
X110555952Y-66759918D01*
X110539714Y-66735950D01*
X110521157Y-66713740D01*
X110520358Y-66707380D01*
X110516763Y-66702073D01*
X110516061Y-66673133D01*
X110512457Y-66644414D01*
X110515195Y-66637454D01*
X110515069Y-66632224D01*
X110521246Y-66622078D01*
X110531756Y-66595372D01*
X110609394Y-66479179D01*
X110669737Y-66333497D01*
X110700500Y-66178842D01*
X110700500Y-66080810D01*
X110709143Y-66051373D01*
X110715667Y-66021384D01*
X110719422Y-66016367D01*
X110720185Y-66013771D01*
X110736818Y-65993130D01*
X110759748Y-65970198D01*
X110783319Y-65946628D01*
X110844641Y-65913143D01*
X110846809Y-65912692D01*
X110847498Y-65912555D01*
X110847499Y-65912555D01*
X110915488Y-65899031D01*
X110946794Y-65892804D01*
X111016386Y-65899031D01*
G37*
%TD.AperFunction*%
%TA.AperFunction,Conductor*%
G36*
X122683985Y-61420185D02*
G01*
X122704627Y-61436819D01*
X125257600Y-63989792D01*
X125291085Y-64051115D01*
X125286101Y-64120807D01*
X125244229Y-64176740D01*
X125225895Y-64187182D01*
X125226191Y-64187736D01*
X125220814Y-64190609D01*
X125089711Y-64278210D01*
X125089707Y-64278213D01*
X124978213Y-64389707D01*
X124978210Y-64389711D01*
X124890609Y-64520814D01*
X124890604Y-64520824D01*
X124882365Y-64540716D01*
X124838524Y-64595119D01*
X124772230Y-64617184D01*
X124704530Y-64599905D01*
X124680123Y-64580944D01*
X122937533Y-62838355D01*
X122937531Y-62838352D01*
X122818660Y-62719481D01*
X122818659Y-62719480D01*
X122731847Y-62669360D01*
X122731847Y-62669359D01*
X122731843Y-62669358D01*
X122681728Y-62640423D01*
X122529000Y-62599499D01*
X122370886Y-62599499D01*
X122363290Y-62599499D01*
X122363274Y-62599500D01*
X121579766Y-62599500D01*
X121512727Y-62579815D01*
X121510875Y-62578602D01*
X121379185Y-62490609D01*
X121379172Y-62490602D01*
X121233501Y-62430264D01*
X121233489Y-62430261D01*
X121078845Y-62399500D01*
X121078842Y-62399500D01*
X120921158Y-62399500D01*
X120921155Y-62399500D01*
X120766510Y-62430261D01*
X120766498Y-62430264D01*
X120620827Y-62490602D01*
X120620814Y-62490609D01*
X120489711Y-62578210D01*
X120489707Y-62578213D01*
X120378213Y-62689707D01*
X120378210Y-62689711D01*
X120290609Y-62820814D01*
X120290602Y-62820827D01*
X120230264Y-62966498D01*
X120230261Y-62966510D01*
X120199500Y-63121153D01*
X120199500Y-63278846D01*
X120222062Y-63392275D01*
X120215835Y-63461867D01*
X120172971Y-63517044D01*
X120107081Y-63540288D01*
X120039085Y-63524220D01*
X120012764Y-63504147D01*
X119317618Y-62809001D01*
X119317616Y-62808998D01*
X119198745Y-62690127D01*
X119198737Y-62690121D01*
X119104876Y-62635931D01*
X119104874Y-62635930D01*
X119061818Y-62611071D01*
X119061817Y-62611070D01*
X119049291Y-62607713D01*
X118909085Y-62570145D01*
X118750971Y-62570145D01*
X118746506Y-62570145D01*
X118679467Y-62550460D01*
X118633712Y-62497656D01*
X118624889Y-62470336D01*
X118609651Y-62393733D01*
X118609648Y-62393723D01*
X118530498Y-62202639D01*
X118530495Y-62202633D01*
X118498621Y-62154931D01*
X118498620Y-62154931D01*
X117966552Y-62687000D01*
X117966551Y-62687001D01*
X117966536Y-62687014D01*
X117966537Y-62687015D01*
X117950000Y-62703551D01*
X117950000Y-62653922D01*
X117926148Y-62564905D01*
X117880070Y-62485095D01*
X117814905Y-62419930D01*
X117735095Y-62373852D01*
X117646078Y-62350000D01*
X117553922Y-62350000D01*
X117464905Y-62373852D01*
X117385095Y-62419930D01*
X117319930Y-62485095D01*
X117273852Y-62564905D01*
X117250000Y-62653922D01*
X117250000Y-62703554D01*
X116701378Y-62154932D01*
X116701377Y-62154932D01*
X116669505Y-62202631D01*
X116669502Y-62202637D01*
X116616737Y-62330022D01*
X116572895Y-62384425D01*
X116506601Y-62406489D01*
X116438902Y-62389209D01*
X116433284Y-62385669D01*
X116425715Y-62380611D01*
X116425700Y-62380603D01*
X116280029Y-62320265D01*
X116280019Y-62320262D01*
X116124677Y-62289362D01*
X116062766Y-62256977D01*
X116061188Y-62255426D01*
X115607139Y-61801377D01*
X117054932Y-61801377D01*
X117054932Y-61801378D01*
X117600000Y-62346446D01*
X117600001Y-62346446D01*
X118145067Y-61801378D01*
X118145067Y-61801377D01*
X118097359Y-61769500D01*
X117906274Y-61690350D01*
X117906266Y-61690348D01*
X117703420Y-61650000D01*
X117496579Y-61650000D01*
X117293733Y-61690348D01*
X117293725Y-61690350D01*
X117102641Y-61769500D01*
X117102631Y-61769505D01*
X117054932Y-61801377D01*
X115607139Y-61801377D01*
X115417943Y-61612181D01*
X115384458Y-61550858D01*
X115389442Y-61481166D01*
X115431314Y-61425233D01*
X115496778Y-61400816D01*
X115505624Y-61400500D01*
X122616946Y-61400500D01*
X122683985Y-61420185D01*
G37*
%TD.AperFunction*%
%TA.AperFunction,Conductor*%
G36*
X141242539Y-58920185D02*
G01*
X141288294Y-58972989D01*
X141299500Y-59024500D01*
X141299500Y-111775500D01*
X141279815Y-111842539D01*
X141227011Y-111888294D01*
X141175500Y-111899500D01*
X98424500Y-111899500D01*
X98357461Y-111879815D01*
X98311706Y-111827011D01*
X98300500Y-111775500D01*
X98300500Y-100066453D01*
X99691300Y-100066453D01*
X99691300Y-100224146D01*
X99722061Y-100378789D01*
X99722064Y-100378801D01*
X99782402Y-100524472D01*
X99782409Y-100524485D01*
X99870010Y-100655588D01*
X99870013Y-100655592D01*
X99981507Y-100767086D01*
X99981511Y-100767089D01*
X100112614Y-100854690D01*
X100112627Y-100854697D01*
X100247888Y-100910723D01*
X100258303Y-100915037D01*
X100320757Y-100927460D01*
X100413649Y-100945938D01*
X100475560Y-100978323D01*
X100477139Y-100979874D01*
X101783503Y-102286238D01*
X101816988Y-102347561D01*
X101812004Y-102417253D01*
X101783506Y-102461598D01*
X101769890Y-102475214D01*
X101644951Y-102647179D01*
X101548444Y-102836585D01*
X101482753Y-103038760D01*
X101474874Y-103088506D01*
X101449500Y-103248713D01*
X101449500Y-103461287D01*
X101457088Y-103509198D01*
X101482753Y-103671239D01*
X101482753Y-103671241D01*
X101482754Y-103671243D01*
X101537749Y-103840500D01*
X101548444Y-103873414D01*
X101644951Y-104062820D01*
X101769890Y-104234786D01*
X101920213Y-104385109D01*
X102092182Y-104510050D01*
X102100946Y-104514516D01*
X102151742Y-104562491D01*
X102168536Y-104630312D01*
X102145998Y-104696447D01*
X102100946Y-104735484D01*
X102092182Y-104739949D01*
X101920213Y-104864890D01*
X101769890Y-105015213D01*
X101644951Y-105187179D01*
X101548444Y-105376585D01*
X101482753Y-105578760D01*
X101449762Y-105787058D01*
X101449500Y-105788713D01*
X101449500Y-106001287D01*
X101450219Y-106005825D01*
X101478398Y-106183744D01*
X101482754Y-106211243D01*
X101509593Y-106293846D01*
X101548444Y-106413414D01*
X101644951Y-106602820D01*
X101769890Y-106774786D01*
X101920213Y-106925109D01*
X102092182Y-107050050D01*
X102100946Y-107054516D01*
X102151742Y-107102491D01*
X102168536Y-107170312D01*
X102145998Y-107236447D01*
X102100946Y-107275484D01*
X102092182Y-107279949D01*
X101920213Y-107404890D01*
X101769890Y-107555213D01*
X101644951Y-107727179D01*
X101548444Y-107916585D01*
X101482753Y-108118760D01*
X101449500Y-108328713D01*
X101449500Y-108541286D01*
X101482255Y-108748097D01*
X101482754Y-108751243D01*
X101537749Y-108920500D01*
X101548444Y-108953414D01*
X101644951Y-109142820D01*
X101769890Y-109314786D01*
X101920213Y-109465109D01*
X102092179Y-109590048D01*
X102092181Y-109590049D01*
X102092184Y-109590051D01*
X102281588Y-109686557D01*
X102483757Y-109752246D01*
X102693713Y-109785500D01*
X102693714Y-109785500D01*
X102906286Y-109785500D01*
X102906287Y-109785500D01*
X103116243Y-109752246D01*
X103318412Y-109686557D01*
X103507816Y-109590051D01*
X103529789Y-109574086D01*
X103679786Y-109465109D01*
X103679788Y-109465106D01*
X103679792Y-109465104D01*
X103830104Y-109314792D01*
X103830106Y-109314788D01*
X103830109Y-109314786D01*
X103909151Y-109205992D01*
X103955051Y-109142816D01*
X103955349Y-109142230D01*
X103975235Y-109103205D01*
X104023209Y-109052409D01*
X104085719Y-109035500D01*
X106478331Y-109035500D01*
X106478347Y-109035501D01*
X106485943Y-109035501D01*
X106644054Y-109035501D01*
X106644057Y-109035501D01*
X106796785Y-108994577D01*
X106846904Y-108965639D01*
X106933716Y-108915520D01*
X106935763Y-108913472D01*
X106945018Y-108908040D01*
X106971757Y-108901348D01*
X106997456Y-108891409D01*
X107009676Y-108891859D01*
X107012798Y-108891078D01*
X107015772Y-108892083D01*
X107027185Y-108892503D01*
X107203945Y-108920500D01*
X107203946Y-108920500D01*
X107396054Y-108920500D01*
X107396055Y-108920500D01*
X107585801Y-108890447D01*
X107768509Y-108831082D01*
X107939681Y-108743865D01*
X108095102Y-108630945D01*
X108230945Y-108495102D01*
X108343865Y-108339681D01*
X108431082Y-108168509D01*
X108490447Y-107985801D01*
X108520500Y-107796055D01*
X108520500Y-107603945D01*
X108490447Y-107414199D01*
X108459653Y-107319426D01*
X108431082Y-107231490D01*
X108420843Y-107211394D01*
X108407947Y-107142725D01*
X108434224Y-107077984D01*
X108491331Y-107037728D01*
X108531328Y-107031100D01*
X108985503Y-107031100D01*
X109052542Y-107050785D01*
X109073184Y-107067419D01*
X110032200Y-108026435D01*
X110065685Y-108087758D01*
X110062450Y-108152433D01*
X110021447Y-108278628D01*
X109984500Y-108511902D01*
X109984500Y-108748097D01*
X110021446Y-108981368D01*
X110094433Y-109205996D01*
X110149865Y-109314786D01*
X110201657Y-109416433D01*
X110340483Y-109607510D01*
X110507490Y-109774517D01*
X110698567Y-109913343D01*
X110797991Y-109964002D01*
X110909003Y-110020566D01*
X110909005Y-110020566D01*
X110909008Y-110020568D01*
X111029412Y-110059689D01*
X111133631Y-110093553D01*
X111366903Y-110130500D01*
X111366908Y-110130500D01*
X111603097Y-110130500D01*
X111836368Y-110093553D01*
X112060992Y-110020568D01*
X112271433Y-109913343D01*
X112462510Y-109774517D01*
X112629517Y-109607510D01*
X112768343Y-109416433D01*
X112828583Y-109298204D01*
X112876558Y-109247409D01*
X112939068Y-109230500D01*
X116530932Y-109230500D01*
X116597971Y-109250185D01*
X116641416Y-109298203D01*
X116701657Y-109416433D01*
X116840483Y-109607510D01*
X117007490Y-109774517D01*
X117198567Y-109913343D01*
X117297991Y-109964002D01*
X117409003Y-110020566D01*
X117409005Y-110020566D01*
X117409008Y-110020568D01*
X117529412Y-110059689D01*
X117633631Y-110093553D01*
X117866903Y-110130500D01*
X117866908Y-110130500D01*
X118103097Y-110130500D01*
X118336368Y-110093553D01*
X118560992Y-110020568D01*
X118771433Y-109913343D01*
X118962510Y-109774517D01*
X119129517Y-109607510D01*
X119268343Y-109416433D01*
X119375568Y-109205992D01*
X119448553Y-108981368D01*
X119451044Y-108965639D01*
X119485500Y-108748097D01*
X119485500Y-108511902D01*
X119448553Y-108278631D01*
X119393728Y-108109898D01*
X119375568Y-108054008D01*
X119375566Y-108054005D01*
X119375566Y-108054003D01*
X119305549Y-107916588D01*
X119268343Y-107843567D01*
X119129517Y-107652490D01*
X118962510Y-107485483D01*
X118771433Y-107346657D01*
X118560996Y-107239433D01*
X118336368Y-107166446D01*
X118103097Y-107129500D01*
X118103092Y-107129500D01*
X117866908Y-107129500D01*
X117866903Y-107129500D01*
X117633631Y-107166446D01*
X117409003Y-107239433D01*
X117198566Y-107346657D01*
X117118416Y-107404890D01*
X117007490Y-107485483D01*
X117007488Y-107485485D01*
X117007487Y-107485485D01*
X116840485Y-107652487D01*
X116840485Y-107652488D01*
X116840483Y-107652490D01*
X116786214Y-107727185D01*
X116701657Y-107843566D01*
X116641417Y-107961795D01*
X116593442Y-108012591D01*
X116530932Y-108029500D01*
X112939068Y-108029500D01*
X112872029Y-108009815D01*
X112828583Y-107961795D01*
X112805549Y-107916588D01*
X112768343Y-107843567D01*
X112629517Y-107652490D01*
X112462510Y-107485483D01*
X112271433Y-107346657D01*
X112060996Y-107239433D01*
X111836368Y-107166446D01*
X111603097Y-107129500D01*
X111603092Y-107129500D01*
X111366908Y-107129500D01*
X111366903Y-107129500D01*
X111133628Y-107166447D01*
X111007433Y-107207450D01*
X110937592Y-107209445D01*
X110881435Y-107177200D01*
X109773190Y-106068955D01*
X109773188Y-106068952D01*
X109654317Y-105950081D01*
X109654316Y-105950080D01*
X109554045Y-105892189D01*
X109554042Y-105892187D01*
X109545046Y-105886993D01*
X109520478Y-105872808D01*
X109514938Y-105866997D01*
X109472263Y-105822239D01*
X109459042Y-105753632D01*
X109459045Y-105753623D01*
X109479378Y-105696531D01*
X109507471Y-105654487D01*
X109544694Y-105598779D01*
X109545996Y-105595637D01*
X109584801Y-105501951D01*
X109605037Y-105453097D01*
X109635800Y-105298442D01*
X109635938Y-105297750D01*
X109668323Y-105235839D01*
X109669822Y-105234312D01*
X110009139Y-104894994D01*
X110070462Y-104861510D01*
X110140154Y-104866494D01*
X110196087Y-104908366D01*
X110200199Y-104914426D01*
X110201656Y-104916432D01*
X110201657Y-104916433D01*
X110340483Y-105107510D01*
X110507490Y-105274517D01*
X110698567Y-105413343D01*
X110765969Y-105447686D01*
X110909003Y-105520566D01*
X110909005Y-105520566D01*
X110909008Y-105520568D01*
X111029412Y-105559689D01*
X111133631Y-105593553D01*
X111366903Y-105630500D01*
X111366908Y-105630500D01*
X111603097Y-105630500D01*
X111836368Y-105593553D01*
X111881905Y-105578757D01*
X112060992Y-105520568D01*
X112271433Y-105413343D01*
X112462510Y-105274517D01*
X112629517Y-105107510D01*
X112768343Y-104916433D01*
X112828583Y-104798204D01*
X112876558Y-104747409D01*
X112939068Y-104730500D01*
X116530932Y-104730500D01*
X116597971Y-104750185D01*
X116641416Y-104798203D01*
X116701657Y-104916433D01*
X116840483Y-105107510D01*
X117007490Y-105274517D01*
X117198567Y-105413343D01*
X117265969Y-105447686D01*
X117409003Y-105520566D01*
X117409005Y-105520566D01*
X117409008Y-105520568D01*
X117529412Y-105559689D01*
X117633631Y-105593553D01*
X117866903Y-105630500D01*
X117866908Y-105630500D01*
X118103097Y-105630500D01*
X118336368Y-105593553D01*
X118381905Y-105578757D01*
X118560992Y-105520568D01*
X118771433Y-105413343D01*
X118962510Y-105274517D01*
X119129517Y-105107510D01*
X119268343Y-104916433D01*
X119375568Y-104705992D01*
X119448553Y-104481368D01*
X119467000Y-104364898D01*
X119485500Y-104248097D01*
X119485500Y-104011902D01*
X119448553Y-103778631D01*
X119389600Y-103597194D01*
X119375568Y-103554008D01*
X119375566Y-103554005D01*
X119375566Y-103554003D01*
X119361142Y-103525695D01*
X119348246Y-103457025D01*
X119374522Y-103392285D01*
X119431629Y-103352028D01*
X119471627Y-103345400D01*
X119974603Y-103345400D01*
X120041642Y-103365085D01*
X120062284Y-103381719D01*
X120623925Y-103943360D01*
X120657410Y-104004683D01*
X120657861Y-104006849D01*
X120688761Y-104162191D01*
X120688764Y-104162201D01*
X120749102Y-104307872D01*
X120749109Y-104307885D01*
X120836710Y-104438988D01*
X120836713Y-104438992D01*
X120948207Y-104550486D01*
X120948211Y-104550489D01*
X121079314Y-104638090D01*
X121079327Y-104638097D01*
X121224998Y-104698435D01*
X121225003Y-104698437D01*
X121379653Y-104729199D01*
X121379656Y-104729200D01*
X121379658Y-104729200D01*
X121537344Y-104729200D01*
X121537345Y-104729199D01*
X121691997Y-104698437D01*
X121837679Y-104638094D01*
X121952015Y-104561696D01*
X122018688Y-104540820D01*
X122086069Y-104559304D01*
X122108583Y-104577118D01*
X122736536Y-105205072D01*
X123337138Y-105805674D01*
X123370623Y-105866997D01*
X123365639Y-105936689D01*
X123364019Y-105940806D01*
X123347163Y-105981501D01*
X123347161Y-105981505D01*
X123316400Y-106136153D01*
X123316400Y-106293846D01*
X123347161Y-106448489D01*
X123347164Y-106448501D01*
X123407502Y-106594172D01*
X123407509Y-106594185D01*
X123495110Y-106725288D01*
X123495113Y-106725292D01*
X123606607Y-106836786D01*
X123606611Y-106836789D01*
X123737714Y-106924390D01*
X123737727Y-106924397D01*
X123883398Y-106984735D01*
X123883403Y-106984737D01*
X123948047Y-106997595D01*
X124038749Y-107015638D01*
X124100660Y-107048023D01*
X124102239Y-107049574D01*
X124905539Y-107852874D01*
X124905549Y-107852885D01*
X124909879Y-107857215D01*
X124909880Y-107857216D01*
X125021684Y-107969020D01*
X125073245Y-107998788D01*
X125108495Y-108019139D01*
X125108497Y-108019141D01*
X125146551Y-108041111D01*
X125158615Y-108048077D01*
X125311343Y-108089001D01*
X125311346Y-108089001D01*
X125477053Y-108089001D01*
X125477069Y-108089000D01*
X128083234Y-108089000D01*
X128150273Y-108108685D01*
X128152125Y-108109898D01*
X128283814Y-108197890D01*
X128283827Y-108197897D01*
X128429498Y-108258235D01*
X128429503Y-108258237D01*
X128584153Y-108288999D01*
X128584156Y-108289000D01*
X128584158Y-108289000D01*
X128741844Y-108289000D01*
X128741845Y-108288999D01*
X128896497Y-108258237D01*
X129042179Y-108197894D01*
X129173289Y-108110289D01*
X129284789Y-107998789D01*
X129372394Y-107867679D01*
X129432737Y-107721997D01*
X129463500Y-107567342D01*
X129463500Y-107409658D01*
X129463500Y-107409655D01*
X129463499Y-107409653D01*
X129432738Y-107255010D01*
X129432737Y-107255003D01*
X129414674Y-107211394D01*
X129372397Y-107109327D01*
X129372390Y-107109314D01*
X129284789Y-106978211D01*
X129284786Y-106978207D01*
X129173292Y-106866713D01*
X129173288Y-106866710D01*
X129042185Y-106779109D01*
X129042172Y-106779102D01*
X128896501Y-106718764D01*
X128896489Y-106718761D01*
X128741845Y-106688000D01*
X128741842Y-106688000D01*
X128584158Y-106688000D01*
X128584155Y-106688000D01*
X128429510Y-106718761D01*
X128429498Y-106718764D01*
X128283827Y-106779102D01*
X128283814Y-106779109D01*
X128152125Y-106867102D01*
X128085447Y-106887980D01*
X128083234Y-106888000D01*
X125690497Y-106888000D01*
X125623458Y-106868315D01*
X125602816Y-106851681D01*
X124951474Y-106200339D01*
X124942412Y-106183744D01*
X124929281Y-106170136D01*
X124918871Y-106140631D01*
X124917989Y-106139016D01*
X124917538Y-106136853D01*
X124916293Y-106130595D01*
X124922519Y-106061003D01*
X124965380Y-106005825D01*
X125031269Y-105982578D01*
X125037910Y-105982400D01*
X126780434Y-105982400D01*
X126847473Y-106002085D01*
X126849325Y-106003298D01*
X126981014Y-106091290D01*
X126981027Y-106091297D01*
X127089321Y-106136153D01*
X127126703Y-106151637D01*
X127281353Y-106182399D01*
X127281356Y-106182400D01*
X127281358Y-106182400D01*
X127439044Y-106182400D01*
X127439045Y-106182399D01*
X127593697Y-106151637D01*
X127739379Y-106091294D01*
X127870489Y-106003689D01*
X127981989Y-105892189D01*
X127981991Y-105892187D01*
X128069590Y-105761085D01*
X128069590Y-105761084D01*
X128069594Y-105761079D01*
X128102276Y-105682175D01*
X128146115Y-105627776D01*
X128212409Y-105605710D01*
X128241024Y-105608013D01*
X128278143Y-105615397D01*
X128333456Y-105626400D01*
X128333458Y-105626400D01*
X128491144Y-105626400D01*
X128491145Y-105626399D01*
X128645797Y-105595637D01*
X128791479Y-105535294D01*
X128922589Y-105447689D01*
X129034089Y-105336189D01*
X129121694Y-105205079D01*
X129182037Y-105059397D01*
X129212800Y-104904742D01*
X129212800Y-104747058D01*
X129212800Y-104747055D01*
X129212799Y-104747053D01*
X129203129Y-104698438D01*
X129182037Y-104592403D01*
X129175706Y-104577119D01*
X129121697Y-104446727D01*
X129121690Y-104446714D01*
X129033698Y-104315025D01*
X129012820Y-104248347D01*
X129012800Y-104246134D01*
X129012800Y-103812300D01*
X129032485Y-103745261D01*
X129085289Y-103699506D01*
X129136800Y-103688300D01*
X129256344Y-103688300D01*
X129256345Y-103688299D01*
X129410997Y-103657537D01*
X129556679Y-103597194D01*
X129596745Y-103570423D01*
X129688375Y-103509198D01*
X129755053Y-103488320D01*
X129757266Y-103488300D01*
X130529068Y-103488300D01*
X130576519Y-103497738D01*
X130679603Y-103540437D01*
X130679606Y-103540437D01*
X130679611Y-103540439D01*
X130834253Y-103571199D01*
X130834256Y-103571200D01*
X130834258Y-103571200D01*
X130991944Y-103571200D01*
X130991945Y-103571199D01*
X131146597Y-103540437D01*
X131292279Y-103480094D01*
X131423389Y-103392489D01*
X131534889Y-103280989D01*
X131622494Y-103149879D01*
X131682837Y-103004197D01*
X131713600Y-102849542D01*
X131713600Y-102691858D01*
X131713600Y-102691855D01*
X131713599Y-102691853D01*
X131693303Y-102589818D01*
X131682837Y-102537203D01*
X131678767Y-102527377D01*
X131622497Y-102391527D01*
X131622490Y-102391514D01*
X131534889Y-102260411D01*
X131534886Y-102260407D01*
X131423392Y-102148913D01*
X131423388Y-102148910D01*
X131292285Y-102061309D01*
X131292272Y-102061302D01*
X131146601Y-102000964D01*
X131146589Y-102000961D01*
X130991945Y-101970200D01*
X130991942Y-101970200D01*
X130834258Y-101970200D01*
X130834255Y-101970200D01*
X130679610Y-102000961D01*
X130679598Y-102000964D01*
X130533927Y-102061302D01*
X130533914Y-102061309D01*
X130402811Y-102148910D01*
X130402807Y-102148913D01*
X130300740Y-102250981D01*
X130239417Y-102284466D01*
X130213059Y-102287300D01*
X129757266Y-102287300D01*
X129690227Y-102267615D01*
X129688375Y-102266402D01*
X129556685Y-102178409D01*
X129556672Y-102178402D01*
X129411001Y-102118064D01*
X129410989Y-102118061D01*
X129256345Y-102087300D01*
X129256342Y-102087300D01*
X129136800Y-102087300D01*
X129069761Y-102067615D01*
X129024006Y-102014811D01*
X129012800Y-101963300D01*
X129012800Y-97323244D01*
X129012800Y-97323243D01*
X129005390Y-97295590D01*
X129000733Y-97278211D01*
X128993583Y-97251524D01*
X128971877Y-97170516D01*
X128971873Y-97170509D01*
X128892824Y-97033590D01*
X128892821Y-97033586D01*
X128892820Y-97033584D01*
X128781016Y-96921780D01*
X128781015Y-96921779D01*
X128776685Y-96917449D01*
X128776674Y-96917439D01*
X121264780Y-89405545D01*
X121231295Y-89344222D01*
X121230843Y-89342050D01*
X121230238Y-89339008D01*
X121230237Y-89339007D01*
X121230237Y-89339003D01*
X121201675Y-89270048D01*
X121169897Y-89193327D01*
X121169890Y-89193314D01*
X121082289Y-89062211D01*
X121082286Y-89062207D01*
X120970792Y-88950713D01*
X120970788Y-88950710D01*
X120839685Y-88863109D01*
X120839672Y-88863102D01*
X120694001Y-88802764D01*
X120693989Y-88802761D01*
X120539345Y-88772000D01*
X120539342Y-88772000D01*
X120381658Y-88772000D01*
X120381655Y-88772000D01*
X120227010Y-88802761D01*
X120226998Y-88802764D01*
X120081327Y-88863102D01*
X120081314Y-88863109D01*
X119950211Y-88950710D01*
X119950207Y-88950713D01*
X119838713Y-89062207D01*
X119838710Y-89062211D01*
X119751109Y-89193314D01*
X119751102Y-89193327D01*
X119690764Y-89338998D01*
X119690761Y-89339010D01*
X119660000Y-89493653D01*
X119660000Y-89651346D01*
X119690761Y-89805989D01*
X119690764Y-89806001D01*
X119751102Y-89951672D01*
X119751109Y-89951685D01*
X119838710Y-90082788D01*
X119838713Y-90082792D01*
X119950207Y-90194286D01*
X119950211Y-90194289D01*
X120081314Y-90281890D01*
X120081327Y-90281897D01*
X120226998Y-90342235D01*
X120227003Y-90342237D01*
X120381653Y-90372999D01*
X120381656Y-90373000D01*
X120381658Y-90373000D01*
X120482403Y-90373000D01*
X120549442Y-90392685D01*
X120570084Y-90409319D01*
X122701762Y-92540997D01*
X122735247Y-92602320D01*
X122730263Y-92672012D01*
X122701765Y-92716357D01*
X122688808Y-92729314D01*
X122601209Y-92860414D01*
X122601202Y-92860427D01*
X122540864Y-93006098D01*
X122540861Y-93006110D01*
X122510100Y-93160753D01*
X122510100Y-93318446D01*
X122540861Y-93473089D01*
X122540864Y-93473101D01*
X122601202Y-93618772D01*
X122601209Y-93618785D01*
X122637910Y-93673711D01*
X122684452Y-93743366D01*
X122689202Y-93750474D01*
X122710080Y-93817151D01*
X122710100Y-93819365D01*
X122710100Y-95705500D01*
X122690415Y-95772539D01*
X122637611Y-95818294D01*
X122586100Y-95829500D01*
X119439068Y-95829500D01*
X119372029Y-95809815D01*
X119328583Y-95761795D01*
X119321979Y-95748834D01*
X119268343Y-95643567D01*
X119129517Y-95452490D01*
X118962510Y-95285483D01*
X118771433Y-95146657D01*
X118560996Y-95039433D01*
X118336368Y-94966446D01*
X118103097Y-94929500D01*
X118103092Y-94929500D01*
X117866908Y-94929500D01*
X117866903Y-94929500D01*
X117633628Y-94966447D01*
X117507433Y-95007450D01*
X117437592Y-95009445D01*
X117381435Y-94977200D01*
X115986420Y-93582185D01*
X114498413Y-92094177D01*
X114464930Y-92032857D01*
X114469914Y-91963165D01*
X114498413Y-91918820D01*
X115568713Y-90848521D01*
X115568716Y-90848520D01*
X115680520Y-90736716D01*
X115730639Y-90649904D01*
X115759577Y-90599785D01*
X115800501Y-90447057D01*
X115800501Y-90288943D01*
X115800501Y-90281348D01*
X115800500Y-90281330D01*
X115800500Y-87879765D01*
X115820185Y-87812726D01*
X115821398Y-87810874D01*
X115909390Y-87679185D01*
X115909390Y-87679184D01*
X115909394Y-87679179D01*
X115969737Y-87533497D01*
X116000500Y-87378842D01*
X116000500Y-87221158D01*
X116000500Y-87221155D01*
X116000499Y-87221153D01*
X115988569Y-87161177D01*
X115969737Y-87066503D01*
X115948606Y-87015487D01*
X115909397Y-86920827D01*
X115909390Y-86920814D01*
X115821789Y-86789711D01*
X115821786Y-86789707D01*
X115710292Y-86678213D01*
X115710288Y-86678210D01*
X115579185Y-86590609D01*
X115579172Y-86590602D01*
X115433501Y-86530264D01*
X115433489Y-86530261D01*
X115278845Y-86499500D01*
X115278842Y-86499500D01*
X115121158Y-86499500D01*
X115121155Y-86499500D01*
X114966510Y-86530261D01*
X114966498Y-86530264D01*
X114820827Y-86590602D01*
X114820814Y-86590609D01*
X114689711Y-86678210D01*
X114689707Y-86678213D01*
X114578213Y-86789707D01*
X114578210Y-86789711D01*
X114490609Y-86920814D01*
X114490602Y-86920827D01*
X114430264Y-87066498D01*
X114430261Y-87066510D01*
X114399500Y-87221153D01*
X114399500Y-87378846D01*
X114430261Y-87533489D01*
X114430264Y-87533501D01*
X114490602Y-87679172D01*
X114490609Y-87679185D01*
X114578602Y-87810874D01*
X114599480Y-87877551D01*
X114599500Y-87879765D01*
X114599500Y-90067903D01*
X114579815Y-90134942D01*
X114563181Y-90155584D01*
X113349084Y-91369681D01*
X113287761Y-91403166D01*
X113261403Y-91406000D01*
X104135397Y-91406000D01*
X104068358Y-91386315D01*
X104022603Y-91333511D01*
X104012659Y-91264353D01*
X104024913Y-91225704D01*
X104051555Y-91173416D01*
X104051556Y-91173414D01*
X104051557Y-91173412D01*
X104117246Y-90971243D01*
X104150500Y-90761287D01*
X104150500Y-90548713D01*
X104117246Y-90338757D01*
X104051557Y-90136588D01*
X103955051Y-89947184D01*
X103955049Y-89947181D01*
X103955048Y-89947179D01*
X103830109Y-89775213D01*
X103679786Y-89624890D01*
X103507820Y-89499951D01*
X103507115Y-89499591D01*
X103499054Y-89495485D01*
X103448259Y-89447512D01*
X103431463Y-89379692D01*
X103453999Y-89313556D01*
X103499054Y-89274515D01*
X103507816Y-89270051D01*
X103529789Y-89254086D01*
X103679786Y-89145109D01*
X103679788Y-89145106D01*
X103679792Y-89145104D01*
X103830104Y-88994792D01*
X103830106Y-88994788D01*
X103830109Y-88994786D01*
X103955048Y-88822820D01*
X103955047Y-88822820D01*
X103955051Y-88822816D01*
X104051557Y-88633412D01*
X104117246Y-88431243D01*
X104150500Y-88221287D01*
X104150500Y-88008713D01*
X104117246Y-87798757D01*
X104051557Y-87596588D01*
X104051555Y-87596585D01*
X104051555Y-87596583D01*
X104019413Y-87533501D01*
X103981281Y-87458664D01*
X103968385Y-87389998D01*
X103994661Y-87325257D01*
X104004071Y-87314704D01*
X104026489Y-87292287D01*
X104114094Y-87161177D01*
X104174437Y-87015495D01*
X104194139Y-86916447D01*
X104205338Y-86860148D01*
X104237723Y-86798237D01*
X104239221Y-86796711D01*
X104776508Y-86259423D01*
X104776513Y-86259420D01*
X104786716Y-86249216D01*
X104786718Y-86249216D01*
X104898522Y-86137412D01*
X104977579Y-86000480D01*
X104991264Y-85949405D01*
X105027630Y-85889746D01*
X105090477Y-85859217D01*
X105111039Y-85857500D01*
X109006034Y-85857500D01*
X109073073Y-85877185D01*
X109074925Y-85878398D01*
X109206614Y-85966390D01*
X109206627Y-85966397D01*
X109352298Y-86026735D01*
X109352303Y-86026737D01*
X109506953Y-86057499D01*
X109506956Y-86057500D01*
X109506958Y-86057500D01*
X109664644Y-86057500D01*
X109664645Y-86057499D01*
X109819297Y-86026737D01*
X109964979Y-85966394D01*
X110096089Y-85878789D01*
X110207589Y-85767289D01*
X110295194Y-85636179D01*
X110355537Y-85490497D01*
X110386300Y-85335842D01*
X110386300Y-85178158D01*
X110386300Y-85178155D01*
X110385955Y-85174652D01*
X110386300Y-85172833D01*
X110386300Y-85172066D01*
X110386445Y-85172066D01*
X110398975Y-85106006D01*
X110447041Y-85055297D01*
X110509358Y-85038500D01*
X114108188Y-85038500D01*
X114108204Y-85038501D01*
X114115800Y-85038501D01*
X114273911Y-85038501D01*
X114273914Y-85038501D01*
X114426642Y-84997577D01*
X114494280Y-84958526D01*
X114563573Y-84918520D01*
X114675377Y-84806716D01*
X114743705Y-84688368D01*
X114754434Y-84669785D01*
X114795358Y-84517057D01*
X114795358Y-84358943D01*
X114754434Y-84206215D01*
X114725496Y-84156095D01*
X114675377Y-84069284D01*
X114563573Y-83957480D01*
X114563572Y-83957479D01*
X114559242Y-83953149D01*
X114559231Y-83953139D01*
X113910773Y-83304681D01*
X113877288Y-83243358D01*
X113882272Y-83173666D01*
X113924144Y-83117733D01*
X113989608Y-83093316D01*
X113998454Y-83093000D01*
X127737003Y-83093000D01*
X127804042Y-83112685D01*
X127824684Y-83129319D01*
X130165425Y-85470060D01*
X130198910Y-85531383D01*
X130199361Y-85533549D01*
X130230261Y-85688891D01*
X130230264Y-85688901D01*
X130290602Y-85834572D01*
X130290609Y-85834585D01*
X130378210Y-85965688D01*
X130378213Y-85965692D01*
X130489707Y-86077186D01*
X130489711Y-86077189D01*
X130620814Y-86164790D01*
X130620827Y-86164797D01*
X130766498Y-86225135D01*
X130766503Y-86225137D01*
X130860645Y-86243863D01*
X130900691Y-86251829D01*
X130962602Y-86284214D01*
X130997176Y-86344929D01*
X131000500Y-86373446D01*
X131000500Y-87598903D01*
X130980815Y-87665942D01*
X130964181Y-87686584D01*
X130685339Y-87965425D01*
X130624016Y-87998910D01*
X130621850Y-87999361D01*
X130466508Y-88030261D01*
X130466498Y-88030264D01*
X130320827Y-88090602D01*
X130320814Y-88090609D01*
X130189711Y-88178210D01*
X130189707Y-88178213D01*
X130078213Y-88289707D01*
X130078210Y-88289711D01*
X129990609Y-88420814D01*
X129990602Y-88420827D01*
X129930264Y-88566498D01*
X129930261Y-88566510D01*
X129899500Y-88721153D01*
X129899500Y-88878846D01*
X129930261Y-89033489D01*
X129930264Y-89033501D01*
X129990602Y-89179172D01*
X129990609Y-89179185D01*
X130078210Y-89310288D01*
X130078213Y-89310292D01*
X130189707Y-89421786D01*
X130189711Y-89421789D01*
X130320814Y-89509390D01*
X130320827Y-89509397D01*
X130466498Y-89569735D01*
X130466503Y-89569737D01*
X130621153Y-89600499D01*
X130621156Y-89600500D01*
X130621158Y-89600500D01*
X130778844Y-89600500D01*
X130778845Y-89600499D01*
X130933497Y-89569737D01*
X131079179Y-89509394D01*
X131210289Y-89421789D01*
X131321789Y-89310289D01*
X131409394Y-89179179D01*
X131469737Y-89033497D01*
X131489113Y-88936085D01*
X131500638Y-88878150D01*
X131533023Y-88816239D01*
X131534522Y-88814712D01*
X131959506Y-88389727D01*
X131959511Y-88389724D01*
X131969714Y-88379520D01*
X131969716Y-88379520D01*
X132081520Y-88267716D01*
X132160577Y-88130784D01*
X132193286Y-88008713D01*
X132201500Y-87978058D01*
X132201500Y-87819943D01*
X132201500Y-83122224D01*
X132201501Y-83122211D01*
X132201501Y-82954108D01*
X132201501Y-82954107D01*
X132160577Y-82801380D01*
X132107986Y-82710289D01*
X132081524Y-82664454D01*
X132081518Y-82664446D01*
X130951832Y-81534760D01*
X129738224Y-80321153D01*
X131399500Y-80321153D01*
X131399500Y-80478846D01*
X131430261Y-80633489D01*
X131430264Y-80633501D01*
X131490602Y-80779172D01*
X131490609Y-80779185D01*
X131578210Y-80910288D01*
X131578213Y-80910292D01*
X131689707Y-81021786D01*
X131689711Y-81021789D01*
X131820814Y-81109390D01*
X131820827Y-81109397D01*
X131959895Y-81167000D01*
X131966503Y-81169737D01*
X132121153Y-81200499D01*
X132121156Y-81200500D01*
X132121158Y-81200500D01*
X132278844Y-81200500D01*
X132278845Y-81200499D01*
X132433497Y-81169737D01*
X132503066Y-81140921D01*
X132580047Y-81109035D01*
X132649516Y-81101566D01*
X132711995Y-81132841D01*
X132715180Y-81135915D01*
X133114025Y-81534760D01*
X133147510Y-81596083D01*
X133147961Y-81598249D01*
X133178861Y-81753591D01*
X133178864Y-81753601D01*
X133239202Y-81899272D01*
X133239209Y-81899285D01*
X133326810Y-82030388D01*
X133326813Y-82030392D01*
X133438307Y-82141886D01*
X133438311Y-82141889D01*
X133569414Y-82229490D01*
X133569427Y-82229497D01*
X133688563Y-82278844D01*
X133715103Y-82289837D01*
X133869753Y-82320599D01*
X133869756Y-82320600D01*
X133869758Y-82320600D01*
X134027444Y-82320600D01*
X134027445Y-82320599D01*
X134182097Y-82289837D01*
X134327779Y-82229494D01*
X134458889Y-82141889D01*
X134570389Y-82030389D01*
X134657994Y-81899279D01*
X134718337Y-81753597D01*
X134749100Y-81598942D01*
X134749100Y-81441258D01*
X134749100Y-81441255D01*
X134749099Y-81441253D01*
X134735878Y-81374786D01*
X134718337Y-81286603D01*
X134690133Y-81218511D01*
X134657997Y-81140927D01*
X134657990Y-81140914D01*
X134570389Y-81009811D01*
X134570386Y-81009807D01*
X134458892Y-80898313D01*
X134458888Y-80898310D01*
X134327785Y-80810709D01*
X134327772Y-80810702D01*
X134182101Y-80750364D01*
X134182091Y-80750361D01*
X134026751Y-80719462D01*
X133964841Y-80687077D01*
X133963262Y-80685526D01*
X133316090Y-80038355D01*
X133316088Y-80038352D01*
X133197217Y-79919481D01*
X133197216Y-79919480D01*
X133089375Y-79857218D01*
X133089373Y-79857217D01*
X133060285Y-79840423D01*
X133060284Y-79840422D01*
X133060283Y-79840422D01*
X133004381Y-79825443D01*
X132907557Y-79799499D01*
X132779764Y-79799499D01*
X132712725Y-79779814D01*
X132710873Y-79778601D01*
X132579185Y-79690609D01*
X132579172Y-79690602D01*
X132433501Y-79630264D01*
X132433489Y-79630261D01*
X132278845Y-79599500D01*
X132278842Y-79599500D01*
X132121158Y-79599500D01*
X132121155Y-79599500D01*
X131966510Y-79630261D01*
X131966498Y-79630264D01*
X131820827Y-79690602D01*
X131820814Y-79690609D01*
X131689711Y-79778210D01*
X131689707Y-79778213D01*
X131578213Y-79889707D01*
X131578210Y-79889711D01*
X131490609Y-80020814D01*
X131490602Y-80020827D01*
X131430264Y-80166498D01*
X131430261Y-80166510D01*
X131399500Y-80321153D01*
X129738224Y-80321153D01*
X129007551Y-79590480D01*
X128974067Y-79529158D01*
X128979051Y-79459466D01*
X128992131Y-79433909D01*
X129067573Y-79321002D01*
X129067573Y-79321001D01*
X129067577Y-79320996D01*
X129127920Y-79175314D01*
X129158683Y-79020659D01*
X129158683Y-78862975D01*
X129158683Y-78862972D01*
X129158682Y-78862970D01*
X129127921Y-78708327D01*
X129127920Y-78708320D01*
X129109341Y-78663465D01*
X129067580Y-78562644D01*
X129067573Y-78562631D01*
X128979972Y-78431528D01*
X128979969Y-78431524D01*
X128868475Y-78320030D01*
X128868471Y-78320027D01*
X128737368Y-78232426D01*
X128737355Y-78232419D01*
X128591684Y-78172081D01*
X128591674Y-78172078D01*
X128436332Y-78141178D01*
X128374421Y-78108793D01*
X128372843Y-78107242D01*
X125862489Y-75596888D01*
X128975235Y-75596888D01*
X128975235Y-75754581D01*
X129005996Y-75909224D01*
X129005999Y-75909236D01*
X129066337Y-76054907D01*
X129066344Y-76054920D01*
X129153945Y-76186023D01*
X129153948Y-76186027D01*
X129265442Y-76297521D01*
X129265446Y-76297524D01*
X129396549Y-76385125D01*
X129396562Y-76385132D01*
X129534713Y-76442355D01*
X129542238Y-76445472D01*
X129696888Y-76476234D01*
X129696891Y-76476235D01*
X129696893Y-76476235D01*
X129854579Y-76476235D01*
X129854580Y-76476234D01*
X130009232Y-76445472D01*
X130154914Y-76385129D01*
X130286024Y-76297524D01*
X130397524Y-76186024D01*
X130451256Y-76105609D01*
X130504868Y-76060804D01*
X130554358Y-76050500D01*
X131820234Y-76050500D01*
X131887273Y-76070185D01*
X131889125Y-76071398D01*
X132020814Y-76159390D01*
X132020827Y-76159397D01*
X132162722Y-76218171D01*
X132166503Y-76219737D01*
X132321153Y-76250499D01*
X132321156Y-76250500D01*
X132321158Y-76250500D01*
X132478844Y-76250500D01*
X132478845Y-76250499D01*
X132633497Y-76219737D01*
X132779179Y-76159394D01*
X132910289Y-76071789D01*
X133021789Y-75960289D01*
X133109394Y-75829179D01*
X133169737Y-75683497D01*
X133200500Y-75528842D01*
X133200500Y-75371158D01*
X133200500Y-75371155D01*
X133200499Y-75371153D01*
X133185662Y-75296562D01*
X133169737Y-75216503D01*
X133120967Y-75098760D01*
X133109397Y-75070827D01*
X133109390Y-75070814D01*
X133021789Y-74939711D01*
X133021786Y-74939707D01*
X132910292Y-74828213D01*
X132910288Y-74828210D01*
X132779185Y-74740609D01*
X132779172Y-74740602D01*
X132633501Y-74680264D01*
X132633489Y-74680261D01*
X132478845Y-74649500D01*
X132478842Y-74649500D01*
X132321158Y-74649500D01*
X132321155Y-74649500D01*
X132166510Y-74680261D01*
X132166498Y-74680264D01*
X132020827Y-74740602D01*
X132020814Y-74740609D01*
X131889125Y-74828602D01*
X131822447Y-74849480D01*
X131820234Y-74849500D01*
X129922407Y-74849500D01*
X129881489Y-74860464D01*
X129881489Y-74860465D01*
X129842134Y-74871010D01*
X129810042Y-74875235D01*
X129696890Y-74875235D01*
X129542245Y-74905996D01*
X129542233Y-74905999D01*
X129396562Y-74966337D01*
X129396549Y-74966344D01*
X129265446Y-75053945D01*
X129265442Y-75053948D01*
X129153948Y-75165442D01*
X129153945Y-75165446D01*
X129066344Y-75296549D01*
X129066337Y-75296562D01*
X129005999Y-75442233D01*
X129005996Y-75442245D01*
X128975235Y-75596888D01*
X125862489Y-75596888D01*
X124778782Y-74513181D01*
X124745297Y-74451858D01*
X124750281Y-74382166D01*
X124792153Y-74326233D01*
X124857617Y-74301816D01*
X124866463Y-74301500D01*
X133448874Y-74301500D01*
X133448890Y-74301501D01*
X133456486Y-74301501D01*
X133614597Y-74301501D01*
X133614600Y-74301501D01*
X133767328Y-74260577D01*
X133817447Y-74231639D01*
X133904259Y-74181520D01*
X134016063Y-74069716D01*
X134016064Y-74069714D01*
X134394920Y-73690859D01*
X134473977Y-73553927D01*
X134514901Y-73401200D01*
X134514901Y-73243085D01*
X134514901Y-73235490D01*
X134514900Y-73235472D01*
X134514900Y-69135345D01*
X134514900Y-69135343D01*
X134473977Y-68982616D01*
X134465255Y-68967509D01*
X134394924Y-68845690D01*
X134394921Y-68845686D01*
X134394920Y-68845684D01*
X134283116Y-68733880D01*
X134283115Y-68733879D01*
X134278785Y-68729549D01*
X134278774Y-68729539D01*
X131134574Y-65585339D01*
X131101089Y-65524016D01*
X131100638Y-65521849D01*
X131069738Y-65366510D01*
X131069737Y-65366503D01*
X131050755Y-65320676D01*
X131009397Y-65220827D01*
X131009390Y-65220814D01*
X130921789Y-65089711D01*
X130921786Y-65089707D01*
X130810292Y-64978213D01*
X130810288Y-64978210D01*
X130679185Y-64890609D01*
X130679172Y-64890602D01*
X130533501Y-64830264D01*
X130533489Y-64830261D01*
X130378845Y-64799500D01*
X130378842Y-64799500D01*
X130221158Y-64799500D01*
X130221155Y-64799500D01*
X130066510Y-64830261D01*
X130066498Y-64830264D01*
X129920827Y-64890602D01*
X129920814Y-64890609D01*
X129789711Y-64978210D01*
X129789707Y-64978213D01*
X129678213Y-65089707D01*
X129678210Y-65089711D01*
X129590609Y-65220814D01*
X129590602Y-65220827D01*
X129530264Y-65366498D01*
X129530261Y-65366510D01*
X129499500Y-65521153D01*
X129499500Y-65678846D01*
X129530261Y-65833489D01*
X129530264Y-65833501D01*
X129590602Y-65979172D01*
X129590609Y-65979185D01*
X129678210Y-66110288D01*
X129678213Y-66110292D01*
X129789707Y-66221786D01*
X129789711Y-66221789D01*
X129920814Y-66309390D01*
X129920827Y-66309397D01*
X130066498Y-66369735D01*
X130066503Y-66369737D01*
X130131147Y-66382595D01*
X130221849Y-66400638D01*
X130283760Y-66433023D01*
X130285339Y-66434574D01*
X133277581Y-69426816D01*
X133311066Y-69488139D01*
X133313900Y-69514497D01*
X133313900Y-72976500D01*
X133294215Y-73043539D01*
X133241411Y-73089294D01*
X133189900Y-73100500D01*
X124451154Y-73100500D01*
X124384115Y-73080815D01*
X124363473Y-73064181D01*
X123848803Y-72549511D01*
X123815318Y-72488188D01*
X123820302Y-72418496D01*
X123833382Y-72392939D01*
X123909390Y-72279185D01*
X123909390Y-72279184D01*
X123909394Y-72279179D01*
X123969737Y-72133497D01*
X124000500Y-71978842D01*
X124000500Y-71821158D01*
X124000500Y-71821155D01*
X124000499Y-71821153D01*
X123989829Y-71767514D01*
X123969737Y-71666503D01*
X123954119Y-71628797D01*
X123909397Y-71520827D01*
X123909390Y-71520814D01*
X123821398Y-71389125D01*
X123815747Y-71371078D01*
X123805523Y-71355169D01*
X123801071Y-71324207D01*
X123800520Y-71322447D01*
X123800500Y-71320234D01*
X123800500Y-71097955D01*
X123820185Y-71030916D01*
X123872989Y-70985161D01*
X123900303Y-70976339D01*
X123933497Y-70969737D01*
X124079179Y-70909394D01*
X124210289Y-70821789D01*
X124321789Y-70710289D01*
X124409394Y-70579179D01*
X124469737Y-70433497D01*
X124500500Y-70278842D01*
X124500500Y-70121158D01*
X124500500Y-70121155D01*
X124500499Y-70121153D01*
X124493987Y-70088417D01*
X124469737Y-69966503D01*
X124427096Y-69863557D01*
X124409397Y-69820827D01*
X124409390Y-69820814D01*
X124321789Y-69689711D01*
X124321786Y-69689707D01*
X124210292Y-69578213D01*
X124210288Y-69578210D01*
X124199083Y-69570723D01*
X124154278Y-69517111D01*
X124145571Y-69447786D01*
X124175726Y-69384758D01*
X124180274Y-69379959D01*
X125958506Y-67601728D01*
X125958511Y-67601724D01*
X125968714Y-67591520D01*
X125968716Y-67591520D01*
X126080520Y-67479716D01*
X126159577Y-67342784D01*
X126191051Y-67225322D01*
X126200500Y-67190058D01*
X126200500Y-67045834D01*
X126220185Y-66978795D01*
X126272989Y-66933040D01*
X126342147Y-66923096D01*
X126371950Y-66931272D01*
X126466503Y-66970437D01*
X126576987Y-66992413D01*
X126599691Y-66996930D01*
X126661602Y-67029315D01*
X126696176Y-67090030D01*
X126699500Y-67118547D01*
X126699500Y-67520234D01*
X126679815Y-67587273D01*
X126678602Y-67589125D01*
X126590609Y-67720814D01*
X126590602Y-67720827D01*
X126530264Y-67866498D01*
X126530261Y-67866510D01*
X126499500Y-68021153D01*
X126499500Y-68178846D01*
X126530261Y-68333489D01*
X126530264Y-68333501D01*
X126590602Y-68479172D01*
X126590609Y-68479185D01*
X126678210Y-68610288D01*
X126678213Y-68610292D01*
X126789707Y-68721786D01*
X126789711Y-68721789D01*
X126920814Y-68809390D01*
X126920827Y-68809397D01*
X127057684Y-68866084D01*
X127066503Y-68869737D01*
X127221153Y-68900499D01*
X127221156Y-68900500D01*
X127221158Y-68900500D01*
X127378844Y-68900500D01*
X127378845Y-68900499D01*
X127533497Y-68869737D01*
X127679179Y-68809394D01*
X127810289Y-68721789D01*
X127921789Y-68610289D01*
X128009394Y-68479179D01*
X128010370Y-68476824D01*
X128052581Y-68374915D01*
X128069737Y-68333497D01*
X128100500Y-68178842D01*
X128100500Y-68021158D01*
X128100500Y-68021155D01*
X128100499Y-68021153D01*
X128096729Y-68002200D01*
X128069737Y-67866503D01*
X128050955Y-67821158D01*
X128009397Y-67720827D01*
X128009390Y-67720814D01*
X127921398Y-67589125D01*
X127900520Y-67522447D01*
X127900500Y-67520234D01*
X127900500Y-66932054D01*
X127920185Y-66865015D01*
X127972989Y-66819260D01*
X128042147Y-66809316D01*
X128105703Y-66838341D01*
X128112181Y-66844373D01*
X129163181Y-67895373D01*
X129196666Y-67956696D01*
X129198400Y-67972831D01*
X129198903Y-67972782D01*
X129199500Y-67978846D01*
X129230261Y-68133489D01*
X129230264Y-68133501D01*
X129290602Y-68279172D01*
X129290609Y-68279185D01*
X129378210Y-68410288D01*
X129378213Y-68410292D01*
X129489707Y-68521786D01*
X129489711Y-68521789D01*
X129620814Y-68609390D01*
X129620827Y-68609397D01*
X129708945Y-68645896D01*
X129766503Y-68669737D01*
X129921153Y-68700499D01*
X129921156Y-68700500D01*
X129921158Y-68700500D01*
X130078844Y-68700500D01*
X130078845Y-68700499D01*
X130233497Y-68669737D01*
X130379179Y-68609394D01*
X130510289Y-68521789D01*
X130621789Y-68410289D01*
X130709394Y-68279179D01*
X130769737Y-68133497D01*
X130800500Y-67978842D01*
X130800500Y-67821158D01*
X130800500Y-67821155D01*
X130800499Y-67821153D01*
X130789743Y-67767079D01*
X130769737Y-67666503D01*
X130751054Y-67621397D01*
X130709397Y-67520827D01*
X130709390Y-67520814D01*
X130621789Y-67389711D01*
X130621786Y-67389707D01*
X130510292Y-67278213D01*
X130510288Y-67278210D01*
X130379185Y-67190609D01*
X130379172Y-67190602D01*
X130233501Y-67130264D01*
X130233491Y-67130261D01*
X130099424Y-67103593D01*
X130037513Y-67071208D01*
X130035935Y-67069657D01*
X123404633Y-60438355D01*
X123404631Y-60438352D01*
X123285760Y-60319481D01*
X123285759Y-60319480D01*
X123198947Y-60269360D01*
X123198947Y-60269359D01*
X123198943Y-60269358D01*
X123148828Y-60240423D01*
X122996100Y-60199499D01*
X122837986Y-60199499D01*
X122830390Y-60199499D01*
X122830374Y-60199500D01*
X110486670Y-60199500D01*
X110486654Y-60199499D01*
X110479058Y-60199499D01*
X110320943Y-60199499D01*
X110244579Y-60219961D01*
X110168214Y-60240423D01*
X110168209Y-60240426D01*
X110031290Y-60319475D01*
X110031282Y-60319481D01*
X108485339Y-61865425D01*
X108424016Y-61898910D01*
X108421850Y-61899361D01*
X108266508Y-61930261D01*
X108266498Y-61930264D01*
X108120827Y-61990602D01*
X108120814Y-61990609D01*
X107989711Y-62078210D01*
X107989707Y-62078213D01*
X107878213Y-62189707D01*
X107878210Y-62189711D01*
X107790609Y-62320814D01*
X107790602Y-62320827D01*
X107730264Y-62466498D01*
X107730261Y-62466510D01*
X107699500Y-62621153D01*
X107699500Y-62778846D01*
X107730261Y-62933489D01*
X107730264Y-62933501D01*
X107790602Y-63079172D01*
X107790609Y-63079185D01*
X107878210Y-63210288D01*
X107878213Y-63210292D01*
X107989707Y-63321786D01*
X107989711Y-63321789D01*
X108120814Y-63409390D01*
X108120827Y-63409397D01*
X108247503Y-63461867D01*
X108266503Y-63469737D01*
X108421153Y-63500499D01*
X108421156Y-63500500D01*
X108421158Y-63500500D01*
X108578844Y-63500500D01*
X108578845Y-63500499D01*
X108733497Y-63469737D01*
X108879179Y-63409394D01*
X109010289Y-63321789D01*
X109121789Y-63210289D01*
X109209394Y-63079179D01*
X109269737Y-62933497D01*
X109292791Y-62817597D01*
X109300638Y-62778150D01*
X109333023Y-62716239D01*
X109334517Y-62714717D01*
X110612417Y-61436819D01*
X110673740Y-61403334D01*
X110700098Y-61400500D01*
X111050902Y-61400500D01*
X111072147Y-61406738D01*
X111094236Y-61408318D01*
X111105019Y-61416390D01*
X111117941Y-61420185D01*
X111132440Y-61436918D01*
X111150169Y-61450190D01*
X111154876Y-61462810D01*
X111163696Y-61472989D01*
X111166847Y-61494906D01*
X111174586Y-61515654D01*
X111171723Y-61528814D01*
X111173640Y-61542147D01*
X111164440Y-61562290D01*
X111159734Y-61583927D01*
X111146465Y-61601652D01*
X111144615Y-61605703D01*
X111138583Y-61612181D01*
X110985339Y-61765425D01*
X110924016Y-61798910D01*
X110921850Y-61799361D01*
X110766508Y-61830261D01*
X110766498Y-61830264D01*
X110620827Y-61890602D01*
X110620814Y-61890609D01*
X110489711Y-61978210D01*
X110489707Y-61978213D01*
X110378213Y-62089707D01*
X110378210Y-62089711D01*
X110290609Y-62220814D01*
X110290602Y-62220827D01*
X110230264Y-62366498D01*
X110230261Y-62366510D01*
X110199500Y-62521153D01*
X110199500Y-62678846D01*
X110230261Y-62833489D01*
X110230264Y-62833501D01*
X110290602Y-62979172D01*
X110290609Y-62979185D01*
X110365060Y-63090608D01*
X110385938Y-63157286D01*
X110367453Y-63224666D01*
X110349639Y-63247180D01*
X107261986Y-66334835D01*
X107150181Y-66446639D01*
X107150179Y-66446642D01*
X107145393Y-66454932D01*
X107107282Y-66520943D01*
X107071123Y-66583572D01*
X107030199Y-66736300D01*
X107030199Y-66736302D01*
X107030199Y-66904403D01*
X107030200Y-66904416D01*
X107030200Y-72352979D01*
X107010515Y-72420018D01*
X106993881Y-72440660D01*
X105369081Y-74065459D01*
X105369079Y-74065461D01*
X105352410Y-74094334D01*
X105330211Y-74132785D01*
X105290023Y-74202392D01*
X105249099Y-74355120D01*
X105249099Y-74355122D01*
X105249099Y-74523223D01*
X105249100Y-74523236D01*
X105249100Y-75920234D01*
X105229415Y-75987273D01*
X105228202Y-75989125D01*
X105140209Y-76120814D01*
X105140202Y-76120827D01*
X105079864Y-76266498D01*
X105079861Y-76266510D01*
X105049100Y-76421153D01*
X105049100Y-76578846D01*
X105079861Y-76733489D01*
X105079864Y-76733501D01*
X105140202Y-76879172D01*
X105140209Y-76879185D01*
X105227810Y-77010288D01*
X105227813Y-77010292D01*
X105339307Y-77121786D01*
X105339311Y-77121789D01*
X105470414Y-77209390D01*
X105470427Y-77209397D01*
X105616098Y-77269735D01*
X105616103Y-77269737D01*
X105770753Y-77300499D01*
X105770756Y-77300500D01*
X105770758Y-77300500D01*
X105928444Y-77300500D01*
X105928445Y-77300499D01*
X106083097Y-77269737D01*
X106228779Y-77209394D01*
X106359889Y-77121789D01*
X106471389Y-77010289D01*
X106558994Y-76879179D01*
X106619337Y-76733497D01*
X106650100Y-76578842D01*
X106650100Y-76421158D01*
X106650100Y-76421155D01*
X106650099Y-76421153D01*
X106642933Y-76385129D01*
X106619337Y-76266503D01*
X106619335Y-76266498D01*
X106558997Y-76120827D01*
X106558990Y-76120814D01*
X106470998Y-75989125D01*
X106450120Y-75922447D01*
X106450100Y-75920234D01*
X106450100Y-74734274D01*
X106469785Y-74667235D01*
X106486419Y-74646593D01*
X106988319Y-74144693D01*
X107049642Y-74111208D01*
X107119334Y-74116192D01*
X107175267Y-74158064D01*
X107199684Y-74223528D01*
X107200000Y-74232374D01*
X107200000Y-78327616D01*
X107180315Y-78394655D01*
X107127511Y-78440410D01*
X107058353Y-78450354D01*
X106994797Y-78421329D01*
X106961439Y-78375069D01*
X106909395Y-78249423D01*
X106909390Y-78249414D01*
X106821789Y-78118311D01*
X106821786Y-78118307D01*
X106710292Y-78006813D01*
X106710288Y-78006810D01*
X106579185Y-77919209D01*
X106579172Y-77919202D01*
X106433501Y-77858864D01*
X106433489Y-77858861D01*
X106278845Y-77828100D01*
X106278842Y-77828100D01*
X106121158Y-77828100D01*
X106121155Y-77828100D01*
X105966510Y-77858861D01*
X105966498Y-77858864D01*
X105820827Y-77919202D01*
X105820816Y-77919208D01*
X105707059Y-77995218D01*
X105640382Y-78016095D01*
X105573002Y-77997610D01*
X105550488Y-77979796D01*
X104013047Y-76442355D01*
X104005978Y-76435286D01*
X104005977Y-76435284D01*
X103919876Y-76349183D01*
X103889559Y-76293659D01*
X103886394Y-76287863D01*
X103887715Y-76269398D01*
X103891378Y-76218171D01*
X103907242Y-76188619D01*
X103955051Y-76122816D01*
X104051557Y-75933412D01*
X104117246Y-75731243D01*
X104150500Y-75521287D01*
X104150500Y-75308713D01*
X104117246Y-75098757D01*
X104051557Y-74896588D01*
X103955051Y-74707184D01*
X103955049Y-74707181D01*
X103892363Y-74620899D01*
X103880908Y-74588793D01*
X103868998Y-74556863D01*
X103869194Y-74555961D01*
X103868884Y-74555093D01*
X103876606Y-74521884D01*
X103883849Y-74488590D01*
X103884574Y-74487620D01*
X103884710Y-74487039D01*
X103904996Y-74460339D01*
X103969920Y-74395416D01*
X103969921Y-74395413D01*
X105625585Y-72739748D01*
X105686906Y-72706265D01*
X105737457Y-72705814D01*
X105769057Y-72712100D01*
X105769058Y-72712100D01*
X105926744Y-72712100D01*
X105926745Y-72712099D01*
X106081397Y-72681337D01*
X106227079Y-72620994D01*
X106358189Y-72533389D01*
X106469689Y-72421889D01*
X106557294Y-72290779D01*
X106617637Y-72145097D01*
X106648400Y-71990442D01*
X106648400Y-71832758D01*
X106648400Y-71832755D01*
X106648399Y-71832753D01*
X106626013Y-71720211D01*
X106617637Y-71678103D01*
X106597214Y-71628796D01*
X106557297Y-71532427D01*
X106557290Y-71532414D01*
X106469689Y-71401311D01*
X106469686Y-71401307D01*
X106358192Y-71289813D01*
X106358188Y-71289810D01*
X106227085Y-71202209D01*
X106227072Y-71202202D01*
X106081401Y-71141864D01*
X106081389Y-71141861D01*
X105926745Y-71111100D01*
X105926742Y-71111100D01*
X105769058Y-71111100D01*
X105769055Y-71111100D01*
X105614410Y-71141861D01*
X105614398Y-71141864D01*
X105468727Y-71202202D01*
X105468714Y-71202209D01*
X105337611Y-71289810D01*
X105337607Y-71289813D01*
X105226113Y-71401307D01*
X105153470Y-71510024D01*
X105138055Y-71528807D01*
X105123986Y-71542878D01*
X105123978Y-71542886D01*
X104258086Y-72408777D01*
X104196763Y-72442262D01*
X104127071Y-72437278D01*
X104071138Y-72395406D01*
X104052472Y-72359406D01*
X104051557Y-72356588D01*
X103955051Y-72167184D01*
X103955049Y-72167181D01*
X103955048Y-72167179D01*
X103830109Y-71995213D01*
X103716569Y-71881673D01*
X103683084Y-71820350D01*
X103688068Y-71750658D01*
X103729940Y-71694725D01*
X103760915Y-71677810D01*
X103892331Y-71628796D01*
X104007546Y-71542546D01*
X104093796Y-71427331D01*
X104144091Y-71292483D01*
X104150500Y-71232873D01*
X104150499Y-69437128D01*
X104144869Y-69384758D01*
X104144091Y-69377516D01*
X104093797Y-69242671D01*
X104093793Y-69242664D01*
X104007547Y-69127455D01*
X104007544Y-69127452D01*
X103892335Y-69041206D01*
X103892328Y-69041202D01*
X103757482Y-68990908D01*
X103757483Y-68990908D01*
X103697883Y-68984501D01*
X103697881Y-68984500D01*
X103697873Y-68984500D01*
X103697864Y-68984500D01*
X101902129Y-68984500D01*
X101902123Y-68984501D01*
X101842516Y-68990908D01*
X101707671Y-69041202D01*
X101707664Y-69041206D01*
X101592455Y-69127452D01*
X101592452Y-69127455D01*
X101506206Y-69242664D01*
X101506202Y-69242671D01*
X101455908Y-69377517D01*
X101449501Y-69437116D01*
X101449501Y-69437123D01*
X101449500Y-69437135D01*
X101449500Y-71232870D01*
X101449501Y-71232876D01*
X101455908Y-71292483D01*
X101506202Y-71427328D01*
X101506204Y-71427331D01*
X101554633Y-71492024D01*
X101579050Y-71557488D01*
X101564198Y-71625761D01*
X101543047Y-71654016D01*
X101279586Y-71917478D01*
X101167782Y-72029281D01*
X101167778Y-72029287D01*
X101122260Y-72108127D01*
X101088724Y-72166212D01*
X101088723Y-72166213D01*
X101088463Y-72167184D01*
X101047799Y-72318943D01*
X101047799Y-72318945D01*
X101047799Y-72487046D01*
X101047800Y-72487059D01*
X101047800Y-73265330D01*
X101047799Y-73265348D01*
X101047799Y-73431054D01*
X101047798Y-73431054D01*
X101080722Y-73553928D01*
X101088723Y-73583785D01*
X101110754Y-73621943D01*
X101114251Y-73628000D01*
X101167779Y-73720714D01*
X101167781Y-73720717D01*
X101286649Y-73839585D01*
X101286655Y-73839590D01*
X101788403Y-74341338D01*
X101821888Y-74402661D01*
X101816904Y-74472353D01*
X101788405Y-74516698D01*
X101769890Y-74535213D01*
X101644951Y-74707179D01*
X101548444Y-74896585D01*
X101548443Y-74896587D01*
X101548443Y-74896588D01*
X101545385Y-74905999D01*
X101482753Y-75098760D01*
X101449500Y-75308713D01*
X101449500Y-75521286D01*
X101475191Y-75683497D01*
X101482754Y-75731243D01*
X101544880Y-75922447D01*
X101548444Y-75933414D01*
X101644951Y-76122820D01*
X101769890Y-76294786D01*
X101788873Y-76313769D01*
X101822358Y-76375092D01*
X101817374Y-76444784D01*
X101788873Y-76489131D01*
X101168481Y-77109522D01*
X101168479Y-77109525D01*
X101161399Y-77121789D01*
X101129026Y-77177861D01*
X101089423Y-77246455D01*
X101048499Y-77399183D01*
X101048499Y-77399185D01*
X101048499Y-77567286D01*
X101048500Y-77567299D01*
X101048500Y-83425090D01*
X101048499Y-83425108D01*
X101048499Y-83590814D01*
X101048498Y-83590814D01*
X101048499Y-83590817D01*
X101089423Y-83743545D01*
X101089424Y-83743547D01*
X101089423Y-83743547D01*
X101097736Y-83757944D01*
X101097737Y-83757945D01*
X101168477Y-83880472D01*
X101168481Y-83880477D01*
X101287349Y-83999345D01*
X101287355Y-83999350D01*
X101788873Y-84500868D01*
X101822358Y-84562191D01*
X101817374Y-84631883D01*
X101788875Y-84676228D01*
X101769890Y-84695213D01*
X101644951Y-84867179D01*
X101548444Y-85056585D01*
X101482753Y-85258760D01*
X101470544Y-85335846D01*
X101449500Y-85468713D01*
X101449500Y-85681287D01*
X101450705Y-85688897D01*
X101480719Y-85878398D01*
X101482754Y-85891243D01*
X101536774Y-86057500D01*
X101548444Y-86093414D01*
X101644951Y-86282820D01*
X101769890Y-86454786D01*
X101920213Y-86605109D01*
X102092182Y-86730050D01*
X102100946Y-86734516D01*
X102151742Y-86782491D01*
X102168536Y-86850312D01*
X102145998Y-86916447D01*
X102100946Y-86955484D01*
X102092182Y-86959949D01*
X101920213Y-87084890D01*
X101769890Y-87235213D01*
X101644951Y-87407179D01*
X101548444Y-87596585D01*
X101482753Y-87798760D01*
X101456356Y-87965425D01*
X101449500Y-88008713D01*
X101449500Y-88221287D01*
X101482754Y-88431243D01*
X101526701Y-88566498D01*
X101548444Y-88633414D01*
X101644951Y-88822820D01*
X101769890Y-88994786D01*
X101920213Y-89145109D01*
X102092182Y-89270050D01*
X102100946Y-89274516D01*
X102151742Y-89322491D01*
X102168536Y-89390312D01*
X102145998Y-89456447D01*
X102100946Y-89495484D01*
X102092182Y-89499949D01*
X101920213Y-89624890D01*
X101769890Y-89775213D01*
X101644951Y-89947179D01*
X101548444Y-90136585D01*
X101482753Y-90338760D01*
X101449500Y-90548713D01*
X101449500Y-90761286D01*
X101482753Y-90971239D01*
X101548444Y-91173414D01*
X101644951Y-91362820D01*
X101769890Y-91534786D01*
X101786753Y-91551649D01*
X101820238Y-91612972D01*
X101815254Y-91682664D01*
X101786753Y-91727011D01*
X100577151Y-92936612D01*
X100515828Y-92970097D01*
X100513663Y-92970548D01*
X100478906Y-92977461D01*
X100478900Y-92977463D01*
X100333227Y-93037802D01*
X100333214Y-93037809D01*
X100202111Y-93125410D01*
X100202107Y-93125413D01*
X100090613Y-93236907D01*
X100090610Y-93236911D01*
X100003009Y-93368014D01*
X100003002Y-93368027D01*
X99942664Y-93513698D01*
X99942661Y-93513710D01*
X99911900Y-93668353D01*
X99911900Y-93826046D01*
X99942661Y-93980689D01*
X99942664Y-93980701D01*
X100003002Y-94126372D01*
X100003009Y-94126385D01*
X100090610Y-94257488D01*
X100090613Y-94257492D01*
X100202107Y-94368986D01*
X100202111Y-94368989D01*
X100333214Y-94456590D01*
X100333227Y-94456597D01*
X100478898Y-94516935D01*
X100478903Y-94516937D01*
X100633553Y-94547699D01*
X100633556Y-94547700D01*
X100633558Y-94547700D01*
X100791244Y-94547700D01*
X100791245Y-94547699D01*
X100945897Y-94516937D01*
X101091579Y-94456594D01*
X101222689Y-94368989D01*
X101334189Y-94257489D01*
X101421794Y-94126379D01*
X101477069Y-93992932D01*
X101481011Y-93988039D01*
X101482296Y-93981886D01*
X101502666Y-93961167D01*
X101520907Y-93938532D01*
X101526874Y-93936545D01*
X101531281Y-93932064D01*
X101559622Y-93925646D01*
X101587201Y-93916467D01*
X101593292Y-93918021D01*
X101599425Y-93916633D01*
X101626746Y-93926560D01*
X101654900Y-93933746D01*
X101660673Y-93938887D01*
X101665094Y-93940494D01*
X101685328Y-93960846D01*
X101690261Y-93965239D01*
X101691136Y-93966388D01*
X101769896Y-94074792D01*
X101785998Y-94090894D01*
X101791055Y-94097531D01*
X101800680Y-94122683D01*
X101813588Y-94146322D01*
X101812979Y-94154823D01*
X101816027Y-94162786D01*
X101810525Y-94189151D01*
X101808604Y-94216014D01*
X101803147Y-94224504D01*
X101801754Y-94231182D01*
X101793385Y-94239693D01*
X101780103Y-94260361D01*
X100011281Y-96029182D01*
X100011279Y-96029184D01*
X99986713Y-96071734D01*
X99976330Y-96089720D01*
X99932223Y-96166115D01*
X99891299Y-96318843D01*
X99891299Y-96318845D01*
X99891299Y-96486946D01*
X99891300Y-96486959D01*
X99891300Y-99565534D01*
X99871615Y-99632573D01*
X99870402Y-99634425D01*
X99782409Y-99766114D01*
X99782402Y-99766127D01*
X99722064Y-99911798D01*
X99722061Y-99911810D01*
X99691300Y-100066453D01*
X98300500Y-100066453D01*
X98300500Y-59024500D01*
X98320185Y-58957461D01*
X98372989Y-58911706D01*
X98424500Y-58900500D01*
X141175500Y-58900500D01*
X141242539Y-58920185D01*
G37*
%TD.AperFunction*%
%TD*%
M02*
