%TF.GenerationSoftware,KiCad,Pcbnew,9.0.2*%
%TF.CreationDate,2025-06-10T14:23:58-07:00*%
%TF.ProjectId,LockerHacks Remake,4c6f636b-6572-4486-9163-6b732052656d,rev?*%
%TF.SameCoordinates,Original*%
%TF.FileFunction,Legend,Top*%
%TF.FilePolarity,Positive*%
%FSLAX46Y46*%
G04 Gerber Fmt 4.6, Leading zero omitted, Abs format (unit mm)*
G04 Created by KiCad (PCBNEW 9.0.2) date 2025-06-10 14:23:58*
%MOMM*%
%LPD*%
G01*
G04 APERTURE LIST*
%ADD10C,0.150000*%
%ADD11C,0.100000*%
%ADD12C,0.120000*%
%ADD13C,0.200000*%
%ADD14C,0.127000*%
G04 APERTURE END LIST*
D10*
X124438095Y-103454819D02*
X124438095Y-104264342D01*
X124438095Y-104264342D02*
X124485714Y-104359580D01*
X124485714Y-104359580D02*
X124533333Y-104407200D01*
X124533333Y-104407200D02*
X124628571Y-104454819D01*
X124628571Y-104454819D02*
X124819047Y-104454819D01*
X124819047Y-104454819D02*
X124914285Y-104407200D01*
X124914285Y-104407200D02*
X124961904Y-104359580D01*
X124961904Y-104359580D02*
X125009523Y-104264342D01*
X125009523Y-104264342D02*
X125009523Y-103454819D01*
X125390476Y-103454819D02*
X126009523Y-103454819D01*
X126009523Y-103454819D02*
X125676190Y-103835771D01*
X125676190Y-103835771D02*
X125819047Y-103835771D01*
X125819047Y-103835771D02*
X125914285Y-103883390D01*
X125914285Y-103883390D02*
X125961904Y-103931009D01*
X125961904Y-103931009D02*
X126009523Y-104026247D01*
X126009523Y-104026247D02*
X126009523Y-104264342D01*
X126009523Y-104264342D02*
X125961904Y-104359580D01*
X125961904Y-104359580D02*
X125914285Y-104407200D01*
X125914285Y-104407200D02*
X125819047Y-104454819D01*
X125819047Y-104454819D02*
X125533333Y-104454819D01*
X125533333Y-104454819D02*
X125438095Y-104407200D01*
X125438095Y-104407200D02*
X125390476Y-104359580D01*
X114866666Y-61104819D02*
X114866666Y-61819104D01*
X114866666Y-61819104D02*
X114819047Y-61961961D01*
X114819047Y-61961961D02*
X114723809Y-62057200D01*
X114723809Y-62057200D02*
X114580952Y-62104819D01*
X114580952Y-62104819D02*
X114485714Y-62104819D01*
X115866666Y-62104819D02*
X115295238Y-62104819D01*
X115580952Y-62104819D02*
X115580952Y-61104819D01*
X115580952Y-61104819D02*
X115485714Y-61247676D01*
X115485714Y-61247676D02*
X115390476Y-61342914D01*
X115390476Y-61342914D02*
X115295238Y-61390533D01*
X104858333Y-66424819D02*
X104525000Y-65948628D01*
X104286905Y-66424819D02*
X104286905Y-65424819D01*
X104286905Y-65424819D02*
X104667857Y-65424819D01*
X104667857Y-65424819D02*
X104763095Y-65472438D01*
X104763095Y-65472438D02*
X104810714Y-65520057D01*
X104810714Y-65520057D02*
X104858333Y-65615295D01*
X104858333Y-65615295D02*
X104858333Y-65758152D01*
X104858333Y-65758152D02*
X104810714Y-65853390D01*
X104810714Y-65853390D02*
X104763095Y-65901009D01*
X104763095Y-65901009D02*
X104667857Y-65948628D01*
X104667857Y-65948628D02*
X104286905Y-65948628D01*
X105429762Y-65853390D02*
X105334524Y-65805771D01*
X105334524Y-65805771D02*
X105286905Y-65758152D01*
X105286905Y-65758152D02*
X105239286Y-65662914D01*
X105239286Y-65662914D02*
X105239286Y-65615295D01*
X105239286Y-65615295D02*
X105286905Y-65520057D01*
X105286905Y-65520057D02*
X105334524Y-65472438D01*
X105334524Y-65472438D02*
X105429762Y-65424819D01*
X105429762Y-65424819D02*
X105620238Y-65424819D01*
X105620238Y-65424819D02*
X105715476Y-65472438D01*
X105715476Y-65472438D02*
X105763095Y-65520057D01*
X105763095Y-65520057D02*
X105810714Y-65615295D01*
X105810714Y-65615295D02*
X105810714Y-65662914D01*
X105810714Y-65662914D02*
X105763095Y-65758152D01*
X105763095Y-65758152D02*
X105715476Y-65805771D01*
X105715476Y-65805771D02*
X105620238Y-65853390D01*
X105620238Y-65853390D02*
X105429762Y-65853390D01*
X105429762Y-65853390D02*
X105334524Y-65901009D01*
X105334524Y-65901009D02*
X105286905Y-65948628D01*
X105286905Y-65948628D02*
X105239286Y-66043866D01*
X105239286Y-66043866D02*
X105239286Y-66234342D01*
X105239286Y-66234342D02*
X105286905Y-66329580D01*
X105286905Y-66329580D02*
X105334524Y-66377200D01*
X105334524Y-66377200D02*
X105429762Y-66424819D01*
X105429762Y-66424819D02*
X105620238Y-66424819D01*
X105620238Y-66424819D02*
X105715476Y-66377200D01*
X105715476Y-66377200D02*
X105763095Y-66329580D01*
X105763095Y-66329580D02*
X105810714Y-66234342D01*
X105810714Y-66234342D02*
X105810714Y-66043866D01*
X105810714Y-66043866D02*
X105763095Y-65948628D01*
X105763095Y-65948628D02*
X105715476Y-65901009D01*
X105715476Y-65901009D02*
X105620238Y-65853390D01*
X122184819Y-72391666D02*
X121708628Y-72724999D01*
X122184819Y-72963094D02*
X121184819Y-72963094D01*
X121184819Y-72963094D02*
X121184819Y-72582142D01*
X121184819Y-72582142D02*
X121232438Y-72486904D01*
X121232438Y-72486904D02*
X121280057Y-72439285D01*
X121280057Y-72439285D02*
X121375295Y-72391666D01*
X121375295Y-72391666D02*
X121518152Y-72391666D01*
X121518152Y-72391666D02*
X121613390Y-72439285D01*
X121613390Y-72439285D02*
X121661009Y-72486904D01*
X121661009Y-72486904D02*
X121708628Y-72582142D01*
X121708628Y-72582142D02*
X121708628Y-72963094D01*
X121184819Y-72058332D02*
X121184819Y-71391666D01*
X121184819Y-71391666D02*
X122184819Y-71820237D01*
X134488095Y-69154819D02*
X134488095Y-69964342D01*
X134488095Y-69964342D02*
X134535714Y-70059580D01*
X134535714Y-70059580D02*
X134583333Y-70107200D01*
X134583333Y-70107200D02*
X134678571Y-70154819D01*
X134678571Y-70154819D02*
X134869047Y-70154819D01*
X134869047Y-70154819D02*
X134964285Y-70107200D01*
X134964285Y-70107200D02*
X135011904Y-70059580D01*
X135011904Y-70059580D02*
X135059523Y-69964342D01*
X135059523Y-69964342D02*
X135059523Y-69154819D01*
X136011904Y-69154819D02*
X135535714Y-69154819D01*
X135535714Y-69154819D02*
X135488095Y-69631009D01*
X135488095Y-69631009D02*
X135535714Y-69583390D01*
X135535714Y-69583390D02*
X135630952Y-69535771D01*
X135630952Y-69535771D02*
X135869047Y-69535771D01*
X135869047Y-69535771D02*
X135964285Y-69583390D01*
X135964285Y-69583390D02*
X136011904Y-69631009D01*
X136011904Y-69631009D02*
X136059523Y-69726247D01*
X136059523Y-69726247D02*
X136059523Y-69964342D01*
X136059523Y-69964342D02*
X136011904Y-70059580D01*
X136011904Y-70059580D02*
X135964285Y-70107200D01*
X135964285Y-70107200D02*
X135869047Y-70154819D01*
X135869047Y-70154819D02*
X135630952Y-70154819D01*
X135630952Y-70154819D02*
X135535714Y-70107200D01*
X135535714Y-70107200D02*
X135488095Y-70059580D01*
X134713095Y-80499819D02*
X134713095Y-81309342D01*
X134713095Y-81309342D02*
X134760714Y-81404580D01*
X134760714Y-81404580D02*
X134808333Y-81452200D01*
X134808333Y-81452200D02*
X134903571Y-81499819D01*
X134903571Y-81499819D02*
X135094047Y-81499819D01*
X135094047Y-81499819D02*
X135189285Y-81452200D01*
X135189285Y-81452200D02*
X135236904Y-81404580D01*
X135236904Y-81404580D02*
X135284523Y-81309342D01*
X135284523Y-81309342D02*
X135284523Y-80499819D01*
X136189285Y-80833152D02*
X136189285Y-81499819D01*
X135951190Y-80452200D02*
X135713095Y-81166485D01*
X135713095Y-81166485D02*
X136332142Y-81166485D01*
X127588095Y-96562319D02*
X127588095Y-97371842D01*
X127588095Y-97371842D02*
X127635714Y-97467080D01*
X127635714Y-97467080D02*
X127683333Y-97514700D01*
X127683333Y-97514700D02*
X127778571Y-97562319D01*
X127778571Y-97562319D02*
X127969047Y-97562319D01*
X127969047Y-97562319D02*
X128064285Y-97514700D01*
X128064285Y-97514700D02*
X128111904Y-97467080D01*
X128111904Y-97467080D02*
X128159523Y-97371842D01*
X128159523Y-97371842D02*
X128159523Y-96562319D01*
X128588095Y-96657557D02*
X128635714Y-96609938D01*
X128635714Y-96609938D02*
X128730952Y-96562319D01*
X128730952Y-96562319D02*
X128969047Y-96562319D01*
X128969047Y-96562319D02*
X129064285Y-96609938D01*
X129064285Y-96609938D02*
X129111904Y-96657557D01*
X129111904Y-96657557D02*
X129159523Y-96752795D01*
X129159523Y-96752795D02*
X129159523Y-96848033D01*
X129159523Y-96848033D02*
X129111904Y-96990890D01*
X129111904Y-96990890D02*
X128540476Y-97562319D01*
X128540476Y-97562319D02*
X129159523Y-97562319D01*
X113401667Y-94837200D02*
X113544524Y-94884819D01*
X113544524Y-94884819D02*
X113782619Y-94884819D01*
X113782619Y-94884819D02*
X113877857Y-94837200D01*
X113877857Y-94837200D02*
X113925476Y-94789580D01*
X113925476Y-94789580D02*
X113973095Y-94694342D01*
X113973095Y-94694342D02*
X113973095Y-94599104D01*
X113973095Y-94599104D02*
X113925476Y-94503866D01*
X113925476Y-94503866D02*
X113877857Y-94456247D01*
X113877857Y-94456247D02*
X113782619Y-94408628D01*
X113782619Y-94408628D02*
X113592143Y-94361009D01*
X113592143Y-94361009D02*
X113496905Y-94313390D01*
X113496905Y-94313390D02*
X113449286Y-94265771D01*
X113449286Y-94265771D02*
X113401667Y-94170533D01*
X113401667Y-94170533D02*
X113401667Y-94075295D01*
X113401667Y-94075295D02*
X113449286Y-93980057D01*
X113449286Y-93980057D02*
X113496905Y-93932438D01*
X113496905Y-93932438D02*
X113592143Y-93884819D01*
X113592143Y-93884819D02*
X113830238Y-93884819D01*
X113830238Y-93884819D02*
X113973095Y-93932438D01*
X114306429Y-93884819D02*
X114544524Y-94884819D01*
X114544524Y-94884819D02*
X114735000Y-94170533D01*
X114735000Y-94170533D02*
X114925476Y-94884819D01*
X114925476Y-94884819D02*
X115163572Y-93884819D01*
X115496905Y-93980057D02*
X115544524Y-93932438D01*
X115544524Y-93932438D02*
X115639762Y-93884819D01*
X115639762Y-93884819D02*
X115877857Y-93884819D01*
X115877857Y-93884819D02*
X115973095Y-93932438D01*
X115973095Y-93932438D02*
X116020714Y-93980057D01*
X116020714Y-93980057D02*
X116068333Y-94075295D01*
X116068333Y-94075295D02*
X116068333Y-94170533D01*
X116068333Y-94170533D02*
X116020714Y-94313390D01*
X116020714Y-94313390D02*
X115449286Y-94884819D01*
X115449286Y-94884819D02*
X116068333Y-94884819D01*
X113401667Y-102537200D02*
X113544524Y-102584819D01*
X113544524Y-102584819D02*
X113782619Y-102584819D01*
X113782619Y-102584819D02*
X113877857Y-102537200D01*
X113877857Y-102537200D02*
X113925476Y-102489580D01*
X113925476Y-102489580D02*
X113973095Y-102394342D01*
X113973095Y-102394342D02*
X113973095Y-102299104D01*
X113973095Y-102299104D02*
X113925476Y-102203866D01*
X113925476Y-102203866D02*
X113877857Y-102156247D01*
X113877857Y-102156247D02*
X113782619Y-102108628D01*
X113782619Y-102108628D02*
X113592143Y-102061009D01*
X113592143Y-102061009D02*
X113496905Y-102013390D01*
X113496905Y-102013390D02*
X113449286Y-101965771D01*
X113449286Y-101965771D02*
X113401667Y-101870533D01*
X113401667Y-101870533D02*
X113401667Y-101775295D01*
X113401667Y-101775295D02*
X113449286Y-101680057D01*
X113449286Y-101680057D02*
X113496905Y-101632438D01*
X113496905Y-101632438D02*
X113592143Y-101584819D01*
X113592143Y-101584819D02*
X113830238Y-101584819D01*
X113830238Y-101584819D02*
X113973095Y-101632438D01*
X114306429Y-101584819D02*
X114544524Y-102584819D01*
X114544524Y-102584819D02*
X114735000Y-101870533D01*
X114735000Y-101870533D02*
X114925476Y-102584819D01*
X114925476Y-102584819D02*
X115163572Y-101584819D01*
X116068333Y-102584819D02*
X115496905Y-102584819D01*
X115782619Y-102584819D02*
X115782619Y-101584819D01*
X115782619Y-101584819D02*
X115687381Y-101727676D01*
X115687381Y-101727676D02*
X115592143Y-101822914D01*
X115592143Y-101822914D02*
X115496905Y-101870533D01*
X104094819Y-105755238D02*
X103618628Y-106088571D01*
X104094819Y-106326666D02*
X103094819Y-106326666D01*
X103094819Y-106326666D02*
X103094819Y-105945714D01*
X103094819Y-105945714D02*
X103142438Y-105850476D01*
X103142438Y-105850476D02*
X103190057Y-105802857D01*
X103190057Y-105802857D02*
X103285295Y-105755238D01*
X103285295Y-105755238D02*
X103428152Y-105755238D01*
X103428152Y-105755238D02*
X103523390Y-105802857D01*
X103523390Y-105802857D02*
X103571009Y-105850476D01*
X103571009Y-105850476D02*
X103618628Y-105945714D01*
X103618628Y-105945714D02*
X103618628Y-106326666D01*
X103094819Y-105469523D02*
X104094819Y-105136190D01*
X104094819Y-105136190D02*
X103094819Y-104802857D01*
X104094819Y-103945714D02*
X104094819Y-104517142D01*
X104094819Y-104231428D02*
X103094819Y-104231428D01*
X103094819Y-104231428D02*
X103237676Y-104326666D01*
X103237676Y-104326666D02*
X103332914Y-104421904D01*
X103332914Y-104421904D02*
X103380533Y-104517142D01*
X126019642Y-87024819D02*
X125686309Y-86548628D01*
X125448214Y-87024819D02*
X125448214Y-86024819D01*
X125448214Y-86024819D02*
X125829166Y-86024819D01*
X125829166Y-86024819D02*
X125924404Y-86072438D01*
X125924404Y-86072438D02*
X125972023Y-86120057D01*
X125972023Y-86120057D02*
X126019642Y-86215295D01*
X126019642Y-86215295D02*
X126019642Y-86358152D01*
X126019642Y-86358152D02*
X125972023Y-86453390D01*
X125972023Y-86453390D02*
X125924404Y-86501009D01*
X125924404Y-86501009D02*
X125829166Y-86548628D01*
X125829166Y-86548628D02*
X125448214Y-86548628D01*
X126972023Y-87024819D02*
X126400595Y-87024819D01*
X126686309Y-87024819D02*
X126686309Y-86024819D01*
X126686309Y-86024819D02*
X126591071Y-86167676D01*
X126591071Y-86167676D02*
X126495833Y-86262914D01*
X126495833Y-86262914D02*
X126400595Y-86310533D01*
X127924404Y-87024819D02*
X127352976Y-87024819D01*
X127638690Y-87024819D02*
X127638690Y-86024819D01*
X127638690Y-86024819D02*
X127543452Y-86167676D01*
X127543452Y-86167676D02*
X127448214Y-86262914D01*
X127448214Y-86262914D02*
X127352976Y-86310533D01*
X105284819Y-85117857D02*
X104808628Y-85451190D01*
X105284819Y-85689285D02*
X104284819Y-85689285D01*
X104284819Y-85689285D02*
X104284819Y-85308333D01*
X104284819Y-85308333D02*
X104332438Y-85213095D01*
X104332438Y-85213095D02*
X104380057Y-85165476D01*
X104380057Y-85165476D02*
X104475295Y-85117857D01*
X104475295Y-85117857D02*
X104618152Y-85117857D01*
X104618152Y-85117857D02*
X104713390Y-85165476D01*
X104713390Y-85165476D02*
X104761009Y-85213095D01*
X104761009Y-85213095D02*
X104808628Y-85308333D01*
X104808628Y-85308333D02*
X104808628Y-85689285D01*
X105284819Y-84165476D02*
X105284819Y-84736904D01*
X105284819Y-84451190D02*
X104284819Y-84451190D01*
X104284819Y-84451190D02*
X104427676Y-84546428D01*
X104427676Y-84546428D02*
X104522914Y-84641666D01*
X104522914Y-84641666D02*
X104570533Y-84736904D01*
X104284819Y-83546428D02*
X104284819Y-83451190D01*
X104284819Y-83451190D02*
X104332438Y-83355952D01*
X104332438Y-83355952D02*
X104380057Y-83308333D01*
X104380057Y-83308333D02*
X104475295Y-83260714D01*
X104475295Y-83260714D02*
X104665771Y-83213095D01*
X104665771Y-83213095D02*
X104903866Y-83213095D01*
X104903866Y-83213095D02*
X105094342Y-83260714D01*
X105094342Y-83260714D02*
X105189580Y-83308333D01*
X105189580Y-83308333D02*
X105237200Y-83355952D01*
X105237200Y-83355952D02*
X105284819Y-83451190D01*
X105284819Y-83451190D02*
X105284819Y-83546428D01*
X105284819Y-83546428D02*
X105237200Y-83641666D01*
X105237200Y-83641666D02*
X105189580Y-83689285D01*
X105189580Y-83689285D02*
X105094342Y-83736904D01*
X105094342Y-83736904D02*
X104903866Y-83784523D01*
X104903866Y-83784523D02*
X104665771Y-83784523D01*
X104665771Y-83784523D02*
X104475295Y-83736904D01*
X104475295Y-83736904D02*
X104380057Y-83689285D01*
X104380057Y-83689285D02*
X104332438Y-83641666D01*
X104332438Y-83641666D02*
X104284819Y-83546428D01*
X105254819Y-87666666D02*
X104778628Y-87999999D01*
X105254819Y-88238094D02*
X104254819Y-88238094D01*
X104254819Y-88238094D02*
X104254819Y-87857142D01*
X104254819Y-87857142D02*
X104302438Y-87761904D01*
X104302438Y-87761904D02*
X104350057Y-87714285D01*
X104350057Y-87714285D02*
X104445295Y-87666666D01*
X104445295Y-87666666D02*
X104588152Y-87666666D01*
X104588152Y-87666666D02*
X104683390Y-87714285D01*
X104683390Y-87714285D02*
X104731009Y-87761904D01*
X104731009Y-87761904D02*
X104778628Y-87857142D01*
X104778628Y-87857142D02*
X104778628Y-88238094D01*
X104254819Y-86809523D02*
X104254819Y-86999999D01*
X104254819Y-86999999D02*
X104302438Y-87095237D01*
X104302438Y-87095237D02*
X104350057Y-87142856D01*
X104350057Y-87142856D02*
X104492914Y-87238094D01*
X104492914Y-87238094D02*
X104683390Y-87285713D01*
X104683390Y-87285713D02*
X105064342Y-87285713D01*
X105064342Y-87285713D02*
X105159580Y-87238094D01*
X105159580Y-87238094D02*
X105207200Y-87190475D01*
X105207200Y-87190475D02*
X105254819Y-87095237D01*
X105254819Y-87095237D02*
X105254819Y-86904761D01*
X105254819Y-86904761D02*
X105207200Y-86809523D01*
X105207200Y-86809523D02*
X105159580Y-86761904D01*
X105159580Y-86761904D02*
X105064342Y-86714285D01*
X105064342Y-86714285D02*
X104826247Y-86714285D01*
X104826247Y-86714285D02*
X104731009Y-86761904D01*
X104731009Y-86761904D02*
X104683390Y-86809523D01*
X104683390Y-86809523D02*
X104635771Y-86904761D01*
X104635771Y-86904761D02*
X104635771Y-87095237D01*
X104635771Y-87095237D02*
X104683390Y-87190475D01*
X104683390Y-87190475D02*
X104731009Y-87238094D01*
X104731009Y-87238094D02*
X104826247Y-87285713D01*
X121808333Y-104424819D02*
X121475000Y-103948628D01*
X121236905Y-104424819D02*
X121236905Y-103424819D01*
X121236905Y-103424819D02*
X121617857Y-103424819D01*
X121617857Y-103424819D02*
X121713095Y-103472438D01*
X121713095Y-103472438D02*
X121760714Y-103520057D01*
X121760714Y-103520057D02*
X121808333Y-103615295D01*
X121808333Y-103615295D02*
X121808333Y-103758152D01*
X121808333Y-103758152D02*
X121760714Y-103853390D01*
X121760714Y-103853390D02*
X121713095Y-103901009D01*
X121713095Y-103901009D02*
X121617857Y-103948628D01*
X121617857Y-103948628D02*
X121236905Y-103948628D01*
X122713095Y-103424819D02*
X122236905Y-103424819D01*
X122236905Y-103424819D02*
X122189286Y-103901009D01*
X122189286Y-103901009D02*
X122236905Y-103853390D01*
X122236905Y-103853390D02*
X122332143Y-103805771D01*
X122332143Y-103805771D02*
X122570238Y-103805771D01*
X122570238Y-103805771D02*
X122665476Y-103853390D01*
X122665476Y-103853390D02*
X122713095Y-103901009D01*
X122713095Y-103901009D02*
X122760714Y-103996247D01*
X122760714Y-103996247D02*
X122760714Y-104234342D01*
X122760714Y-104234342D02*
X122713095Y-104329580D01*
X122713095Y-104329580D02*
X122665476Y-104377200D01*
X122665476Y-104377200D02*
X122570238Y-104424819D01*
X122570238Y-104424819D02*
X122332143Y-104424819D01*
X122332143Y-104424819D02*
X122236905Y-104377200D01*
X122236905Y-104377200D02*
X122189286Y-104329580D01*
X126633333Y-111054819D02*
X126300000Y-110578628D01*
X126061905Y-111054819D02*
X126061905Y-110054819D01*
X126061905Y-110054819D02*
X126442857Y-110054819D01*
X126442857Y-110054819D02*
X126538095Y-110102438D01*
X126538095Y-110102438D02*
X126585714Y-110150057D01*
X126585714Y-110150057D02*
X126633333Y-110245295D01*
X126633333Y-110245295D02*
X126633333Y-110388152D01*
X126633333Y-110388152D02*
X126585714Y-110483390D01*
X126585714Y-110483390D02*
X126538095Y-110531009D01*
X126538095Y-110531009D02*
X126442857Y-110578628D01*
X126442857Y-110578628D02*
X126061905Y-110578628D01*
X127490476Y-110388152D02*
X127490476Y-111054819D01*
X127252381Y-110007200D02*
X127014286Y-110721485D01*
X127014286Y-110721485D02*
X127633333Y-110721485D01*
X125008333Y-93024819D02*
X124675000Y-92548628D01*
X124436905Y-93024819D02*
X124436905Y-92024819D01*
X124436905Y-92024819D02*
X124817857Y-92024819D01*
X124817857Y-92024819D02*
X124913095Y-92072438D01*
X124913095Y-92072438D02*
X124960714Y-92120057D01*
X124960714Y-92120057D02*
X125008333Y-92215295D01*
X125008333Y-92215295D02*
X125008333Y-92358152D01*
X125008333Y-92358152D02*
X124960714Y-92453390D01*
X124960714Y-92453390D02*
X124913095Y-92501009D01*
X124913095Y-92501009D02*
X124817857Y-92548628D01*
X124817857Y-92548628D02*
X124436905Y-92548628D01*
X125341667Y-92024819D02*
X125960714Y-92024819D01*
X125960714Y-92024819D02*
X125627381Y-92405771D01*
X125627381Y-92405771D02*
X125770238Y-92405771D01*
X125770238Y-92405771D02*
X125865476Y-92453390D01*
X125865476Y-92453390D02*
X125913095Y-92501009D01*
X125913095Y-92501009D02*
X125960714Y-92596247D01*
X125960714Y-92596247D02*
X125960714Y-92834342D01*
X125960714Y-92834342D02*
X125913095Y-92929580D01*
X125913095Y-92929580D02*
X125865476Y-92977200D01*
X125865476Y-92977200D02*
X125770238Y-93024819D01*
X125770238Y-93024819D02*
X125484524Y-93024819D01*
X125484524Y-93024819D02*
X125389286Y-92977200D01*
X125389286Y-92977200D02*
X125341667Y-92929580D01*
X122754819Y-100696666D02*
X122278628Y-101029999D01*
X122754819Y-101268094D02*
X121754819Y-101268094D01*
X121754819Y-101268094D02*
X121754819Y-100887142D01*
X121754819Y-100887142D02*
X121802438Y-100791904D01*
X121802438Y-100791904D02*
X121850057Y-100744285D01*
X121850057Y-100744285D02*
X121945295Y-100696666D01*
X121945295Y-100696666D02*
X122088152Y-100696666D01*
X122088152Y-100696666D02*
X122183390Y-100744285D01*
X122183390Y-100744285D02*
X122231009Y-100791904D01*
X122231009Y-100791904D02*
X122278628Y-100887142D01*
X122278628Y-100887142D02*
X122278628Y-101268094D01*
X121850057Y-100315713D02*
X121802438Y-100268094D01*
X121802438Y-100268094D02*
X121754819Y-100172856D01*
X121754819Y-100172856D02*
X121754819Y-99934761D01*
X121754819Y-99934761D02*
X121802438Y-99839523D01*
X121802438Y-99839523D02*
X121850057Y-99791904D01*
X121850057Y-99791904D02*
X121945295Y-99744285D01*
X121945295Y-99744285D02*
X122040533Y-99744285D01*
X122040533Y-99744285D02*
X122183390Y-99791904D01*
X122183390Y-99791904D02*
X122754819Y-100363332D01*
X122754819Y-100363332D02*
X122754819Y-99744285D01*
X106008333Y-98324819D02*
X105675000Y-97848628D01*
X105436905Y-98324819D02*
X105436905Y-97324819D01*
X105436905Y-97324819D02*
X105817857Y-97324819D01*
X105817857Y-97324819D02*
X105913095Y-97372438D01*
X105913095Y-97372438D02*
X105960714Y-97420057D01*
X105960714Y-97420057D02*
X106008333Y-97515295D01*
X106008333Y-97515295D02*
X106008333Y-97658152D01*
X106008333Y-97658152D02*
X105960714Y-97753390D01*
X105960714Y-97753390D02*
X105913095Y-97801009D01*
X105913095Y-97801009D02*
X105817857Y-97848628D01*
X105817857Y-97848628D02*
X105436905Y-97848628D01*
X106960714Y-98324819D02*
X106389286Y-98324819D01*
X106675000Y-98324819D02*
X106675000Y-97324819D01*
X106675000Y-97324819D02*
X106579762Y-97467676D01*
X106579762Y-97467676D02*
X106484524Y-97562914D01*
X106484524Y-97562914D02*
X106389286Y-97610533D01*
X102466666Y-67409819D02*
X102466666Y-68124104D01*
X102466666Y-68124104D02*
X102419047Y-68266961D01*
X102419047Y-68266961D02*
X102323809Y-68362200D01*
X102323809Y-68362200D02*
X102180952Y-68409819D01*
X102180952Y-68409819D02*
X102085714Y-68409819D01*
X102895238Y-67505057D02*
X102942857Y-67457438D01*
X102942857Y-67457438D02*
X103038095Y-67409819D01*
X103038095Y-67409819D02*
X103276190Y-67409819D01*
X103276190Y-67409819D02*
X103371428Y-67457438D01*
X103371428Y-67457438D02*
X103419047Y-67505057D01*
X103419047Y-67505057D02*
X103466666Y-67600295D01*
X103466666Y-67600295D02*
X103466666Y-67695533D01*
X103466666Y-67695533D02*
X103419047Y-67838390D01*
X103419047Y-67838390D02*
X102847619Y-68409819D01*
X102847619Y-68409819D02*
X103466666Y-68409819D01*
X125961905Y-85524819D02*
X125961905Y-84524819D01*
X125961905Y-84524819D02*
X126200000Y-84524819D01*
X126200000Y-84524819D02*
X126342857Y-84572438D01*
X126342857Y-84572438D02*
X126438095Y-84667676D01*
X126438095Y-84667676D02*
X126485714Y-84762914D01*
X126485714Y-84762914D02*
X126533333Y-84953390D01*
X126533333Y-84953390D02*
X126533333Y-85096247D01*
X126533333Y-85096247D02*
X126485714Y-85286723D01*
X126485714Y-85286723D02*
X126438095Y-85381961D01*
X126438095Y-85381961D02*
X126342857Y-85477200D01*
X126342857Y-85477200D02*
X126200000Y-85524819D01*
X126200000Y-85524819D02*
X125961905Y-85524819D01*
X127485714Y-85524819D02*
X126914286Y-85524819D01*
X127200000Y-85524819D02*
X127200000Y-84524819D01*
X127200000Y-84524819D02*
X127104762Y-84667676D01*
X127104762Y-84667676D02*
X127009524Y-84762914D01*
X127009524Y-84762914D02*
X126914286Y-84810533D01*
X107829580Y-72742857D02*
X107877200Y-72790476D01*
X107877200Y-72790476D02*
X107924819Y-72933333D01*
X107924819Y-72933333D02*
X107924819Y-73028571D01*
X107924819Y-73028571D02*
X107877200Y-73171428D01*
X107877200Y-73171428D02*
X107781961Y-73266666D01*
X107781961Y-73266666D02*
X107686723Y-73314285D01*
X107686723Y-73314285D02*
X107496247Y-73361904D01*
X107496247Y-73361904D02*
X107353390Y-73361904D01*
X107353390Y-73361904D02*
X107162914Y-73314285D01*
X107162914Y-73314285D02*
X107067676Y-73266666D01*
X107067676Y-73266666D02*
X106972438Y-73171428D01*
X106972438Y-73171428D02*
X106924819Y-73028571D01*
X106924819Y-73028571D02*
X106924819Y-72933333D01*
X106924819Y-72933333D02*
X106972438Y-72790476D01*
X106972438Y-72790476D02*
X107020057Y-72742857D01*
X107924819Y-71790476D02*
X107924819Y-72361904D01*
X107924819Y-72076190D02*
X106924819Y-72076190D01*
X106924819Y-72076190D02*
X107067676Y-72171428D01*
X107067676Y-72171428D02*
X107162914Y-72266666D01*
X107162914Y-72266666D02*
X107210533Y-72361904D01*
X107020057Y-71409523D02*
X106972438Y-71361904D01*
X106972438Y-71361904D02*
X106924819Y-71266666D01*
X106924819Y-71266666D02*
X106924819Y-71028571D01*
X106924819Y-71028571D02*
X106972438Y-70933333D01*
X106972438Y-70933333D02*
X107020057Y-70885714D01*
X107020057Y-70885714D02*
X107115295Y-70838095D01*
X107115295Y-70838095D02*
X107210533Y-70838095D01*
X107210533Y-70838095D02*
X107353390Y-70885714D01*
X107353390Y-70885714D02*
X107924819Y-71457142D01*
X107924819Y-71457142D02*
X107924819Y-70838095D01*
X107829580Y-69717857D02*
X107877200Y-69765476D01*
X107877200Y-69765476D02*
X107924819Y-69908333D01*
X107924819Y-69908333D02*
X107924819Y-70003571D01*
X107924819Y-70003571D02*
X107877200Y-70146428D01*
X107877200Y-70146428D02*
X107781961Y-70241666D01*
X107781961Y-70241666D02*
X107686723Y-70289285D01*
X107686723Y-70289285D02*
X107496247Y-70336904D01*
X107496247Y-70336904D02*
X107353390Y-70336904D01*
X107353390Y-70336904D02*
X107162914Y-70289285D01*
X107162914Y-70289285D02*
X107067676Y-70241666D01*
X107067676Y-70241666D02*
X106972438Y-70146428D01*
X106972438Y-70146428D02*
X106924819Y-70003571D01*
X106924819Y-70003571D02*
X106924819Y-69908333D01*
X106924819Y-69908333D02*
X106972438Y-69765476D01*
X106972438Y-69765476D02*
X107020057Y-69717857D01*
X107924819Y-68765476D02*
X107924819Y-69336904D01*
X107924819Y-69051190D02*
X106924819Y-69051190D01*
X106924819Y-69051190D02*
X107067676Y-69146428D01*
X107067676Y-69146428D02*
X107162914Y-69241666D01*
X107162914Y-69241666D02*
X107210533Y-69336904D01*
X107924819Y-67813095D02*
X107924819Y-68384523D01*
X107924819Y-68098809D02*
X106924819Y-68098809D01*
X106924819Y-68098809D02*
X107067676Y-68194047D01*
X107067676Y-68194047D02*
X107162914Y-68289285D01*
X107162914Y-68289285D02*
X107210533Y-68384523D01*
X137558333Y-79929580D02*
X137510714Y-79977200D01*
X137510714Y-79977200D02*
X137367857Y-80024819D01*
X137367857Y-80024819D02*
X137272619Y-80024819D01*
X137272619Y-80024819D02*
X137129762Y-79977200D01*
X137129762Y-79977200D02*
X137034524Y-79881961D01*
X137034524Y-79881961D02*
X136986905Y-79786723D01*
X136986905Y-79786723D02*
X136939286Y-79596247D01*
X136939286Y-79596247D02*
X136939286Y-79453390D01*
X136939286Y-79453390D02*
X136986905Y-79262914D01*
X136986905Y-79262914D02*
X137034524Y-79167676D01*
X137034524Y-79167676D02*
X137129762Y-79072438D01*
X137129762Y-79072438D02*
X137272619Y-79024819D01*
X137272619Y-79024819D02*
X137367857Y-79024819D01*
X137367857Y-79024819D02*
X137510714Y-79072438D01*
X137510714Y-79072438D02*
X137558333Y-79120057D01*
X138129762Y-79453390D02*
X138034524Y-79405771D01*
X138034524Y-79405771D02*
X137986905Y-79358152D01*
X137986905Y-79358152D02*
X137939286Y-79262914D01*
X137939286Y-79262914D02*
X137939286Y-79215295D01*
X137939286Y-79215295D02*
X137986905Y-79120057D01*
X137986905Y-79120057D02*
X138034524Y-79072438D01*
X138034524Y-79072438D02*
X138129762Y-79024819D01*
X138129762Y-79024819D02*
X138320238Y-79024819D01*
X138320238Y-79024819D02*
X138415476Y-79072438D01*
X138415476Y-79072438D02*
X138463095Y-79120057D01*
X138463095Y-79120057D02*
X138510714Y-79215295D01*
X138510714Y-79215295D02*
X138510714Y-79262914D01*
X138510714Y-79262914D02*
X138463095Y-79358152D01*
X138463095Y-79358152D02*
X138415476Y-79405771D01*
X138415476Y-79405771D02*
X138320238Y-79453390D01*
X138320238Y-79453390D02*
X138129762Y-79453390D01*
X138129762Y-79453390D02*
X138034524Y-79501009D01*
X138034524Y-79501009D02*
X137986905Y-79548628D01*
X137986905Y-79548628D02*
X137939286Y-79643866D01*
X137939286Y-79643866D02*
X137939286Y-79834342D01*
X137939286Y-79834342D02*
X137986905Y-79929580D01*
X137986905Y-79929580D02*
X138034524Y-79977200D01*
X138034524Y-79977200D02*
X138129762Y-80024819D01*
X138129762Y-80024819D02*
X138320238Y-80024819D01*
X138320238Y-80024819D02*
X138415476Y-79977200D01*
X138415476Y-79977200D02*
X138463095Y-79929580D01*
X138463095Y-79929580D02*
X138510714Y-79834342D01*
X138510714Y-79834342D02*
X138510714Y-79643866D01*
X138510714Y-79643866D02*
X138463095Y-79548628D01*
X138463095Y-79548628D02*
X138415476Y-79501009D01*
X138415476Y-79501009D02*
X138320238Y-79453390D01*
X129929580Y-83641666D02*
X129977200Y-83689285D01*
X129977200Y-83689285D02*
X130024819Y-83832142D01*
X130024819Y-83832142D02*
X130024819Y-83927380D01*
X130024819Y-83927380D02*
X129977200Y-84070237D01*
X129977200Y-84070237D02*
X129881961Y-84165475D01*
X129881961Y-84165475D02*
X129786723Y-84213094D01*
X129786723Y-84213094D02*
X129596247Y-84260713D01*
X129596247Y-84260713D02*
X129453390Y-84260713D01*
X129453390Y-84260713D02*
X129262914Y-84213094D01*
X129262914Y-84213094D02*
X129167676Y-84165475D01*
X129167676Y-84165475D02*
X129072438Y-84070237D01*
X129072438Y-84070237D02*
X129024819Y-83927380D01*
X129024819Y-83927380D02*
X129024819Y-83832142D01*
X129024819Y-83832142D02*
X129072438Y-83689285D01*
X129072438Y-83689285D02*
X129120057Y-83641666D01*
X129024819Y-83308332D02*
X129024819Y-82641666D01*
X129024819Y-82641666D02*
X130024819Y-83070237D01*
X105129580Y-81591666D02*
X105177200Y-81639285D01*
X105177200Y-81639285D02*
X105224819Y-81782142D01*
X105224819Y-81782142D02*
X105224819Y-81877380D01*
X105224819Y-81877380D02*
X105177200Y-82020237D01*
X105177200Y-82020237D02*
X105081961Y-82115475D01*
X105081961Y-82115475D02*
X104986723Y-82163094D01*
X104986723Y-82163094D02*
X104796247Y-82210713D01*
X104796247Y-82210713D02*
X104653390Y-82210713D01*
X104653390Y-82210713D02*
X104462914Y-82163094D01*
X104462914Y-82163094D02*
X104367676Y-82115475D01*
X104367676Y-82115475D02*
X104272438Y-82020237D01*
X104272438Y-82020237D02*
X104224819Y-81877380D01*
X104224819Y-81877380D02*
X104224819Y-81782142D01*
X104224819Y-81782142D02*
X104272438Y-81639285D01*
X104272438Y-81639285D02*
X104320057Y-81591666D01*
X104224819Y-80734523D02*
X104224819Y-80924999D01*
X104224819Y-80924999D02*
X104272438Y-81020237D01*
X104272438Y-81020237D02*
X104320057Y-81067856D01*
X104320057Y-81067856D02*
X104462914Y-81163094D01*
X104462914Y-81163094D02*
X104653390Y-81210713D01*
X104653390Y-81210713D02*
X105034342Y-81210713D01*
X105034342Y-81210713D02*
X105129580Y-81163094D01*
X105129580Y-81163094D02*
X105177200Y-81115475D01*
X105177200Y-81115475D02*
X105224819Y-81020237D01*
X105224819Y-81020237D02*
X105224819Y-80829761D01*
X105224819Y-80829761D02*
X105177200Y-80734523D01*
X105177200Y-80734523D02*
X105129580Y-80686904D01*
X105129580Y-80686904D02*
X105034342Y-80639285D01*
X105034342Y-80639285D02*
X104796247Y-80639285D01*
X104796247Y-80639285D02*
X104701009Y-80686904D01*
X104701009Y-80686904D02*
X104653390Y-80734523D01*
X104653390Y-80734523D02*
X104605771Y-80829761D01*
X104605771Y-80829761D02*
X104605771Y-81020237D01*
X104605771Y-81020237D02*
X104653390Y-81115475D01*
X104653390Y-81115475D02*
X104701009Y-81163094D01*
X104701009Y-81163094D02*
X104796247Y-81210713D01*
X125433333Y-69529580D02*
X125385714Y-69577200D01*
X125385714Y-69577200D02*
X125242857Y-69624819D01*
X125242857Y-69624819D02*
X125147619Y-69624819D01*
X125147619Y-69624819D02*
X125004762Y-69577200D01*
X125004762Y-69577200D02*
X124909524Y-69481961D01*
X124909524Y-69481961D02*
X124861905Y-69386723D01*
X124861905Y-69386723D02*
X124814286Y-69196247D01*
X124814286Y-69196247D02*
X124814286Y-69053390D01*
X124814286Y-69053390D02*
X124861905Y-68862914D01*
X124861905Y-68862914D02*
X124909524Y-68767676D01*
X124909524Y-68767676D02*
X125004762Y-68672438D01*
X125004762Y-68672438D02*
X125147619Y-68624819D01*
X125147619Y-68624819D02*
X125242857Y-68624819D01*
X125242857Y-68624819D02*
X125385714Y-68672438D01*
X125385714Y-68672438D02*
X125433333Y-68720057D01*
X126338095Y-68624819D02*
X125861905Y-68624819D01*
X125861905Y-68624819D02*
X125814286Y-69101009D01*
X125814286Y-69101009D02*
X125861905Y-69053390D01*
X125861905Y-69053390D02*
X125957143Y-69005771D01*
X125957143Y-69005771D02*
X126195238Y-69005771D01*
X126195238Y-69005771D02*
X126290476Y-69053390D01*
X126290476Y-69053390D02*
X126338095Y-69101009D01*
X126338095Y-69101009D02*
X126385714Y-69196247D01*
X126385714Y-69196247D02*
X126385714Y-69434342D01*
X126385714Y-69434342D02*
X126338095Y-69529580D01*
X126338095Y-69529580D02*
X126290476Y-69577200D01*
X126290476Y-69577200D02*
X126195238Y-69624819D01*
X126195238Y-69624819D02*
X125957143Y-69624819D01*
X125957143Y-69624819D02*
X125861905Y-69577200D01*
X125861905Y-69577200D02*
X125814286Y-69529580D01*
X129459580Y-100696666D02*
X129507200Y-100744285D01*
X129507200Y-100744285D02*
X129554819Y-100887142D01*
X129554819Y-100887142D02*
X129554819Y-100982380D01*
X129554819Y-100982380D02*
X129507200Y-101125237D01*
X129507200Y-101125237D02*
X129411961Y-101220475D01*
X129411961Y-101220475D02*
X129316723Y-101268094D01*
X129316723Y-101268094D02*
X129126247Y-101315713D01*
X129126247Y-101315713D02*
X128983390Y-101315713D01*
X128983390Y-101315713D02*
X128792914Y-101268094D01*
X128792914Y-101268094D02*
X128697676Y-101220475D01*
X128697676Y-101220475D02*
X128602438Y-101125237D01*
X128602438Y-101125237D02*
X128554819Y-100982380D01*
X128554819Y-100982380D02*
X128554819Y-100887142D01*
X128554819Y-100887142D02*
X128602438Y-100744285D01*
X128602438Y-100744285D02*
X128650057Y-100696666D01*
X128888152Y-99839523D02*
X129554819Y-99839523D01*
X128507200Y-100077618D02*
X129221485Y-100315713D01*
X129221485Y-100315713D02*
X129221485Y-99696666D01*
X128959580Y-77466666D02*
X129007200Y-77514285D01*
X129007200Y-77514285D02*
X129054819Y-77657142D01*
X129054819Y-77657142D02*
X129054819Y-77752380D01*
X129054819Y-77752380D02*
X129007200Y-77895237D01*
X129007200Y-77895237D02*
X128911961Y-77990475D01*
X128911961Y-77990475D02*
X128816723Y-78038094D01*
X128816723Y-78038094D02*
X128626247Y-78085713D01*
X128626247Y-78085713D02*
X128483390Y-78085713D01*
X128483390Y-78085713D02*
X128292914Y-78038094D01*
X128292914Y-78038094D02*
X128197676Y-77990475D01*
X128197676Y-77990475D02*
X128102438Y-77895237D01*
X128102438Y-77895237D02*
X128054819Y-77752380D01*
X128054819Y-77752380D02*
X128054819Y-77657142D01*
X128054819Y-77657142D02*
X128102438Y-77514285D01*
X128102438Y-77514285D02*
X128150057Y-77466666D01*
X128150057Y-77085713D02*
X128102438Y-77038094D01*
X128102438Y-77038094D02*
X128054819Y-76942856D01*
X128054819Y-76942856D02*
X128054819Y-76704761D01*
X128054819Y-76704761D02*
X128102438Y-76609523D01*
X128102438Y-76609523D02*
X128150057Y-76561904D01*
X128150057Y-76561904D02*
X128245295Y-76514285D01*
X128245295Y-76514285D02*
X128340533Y-76514285D01*
X128340533Y-76514285D02*
X128483390Y-76561904D01*
X128483390Y-76561904D02*
X129054819Y-77133332D01*
X129054819Y-77133332D02*
X129054819Y-76514285D01*
X105129580Y-90741666D02*
X105177200Y-90789285D01*
X105177200Y-90789285D02*
X105224819Y-90932142D01*
X105224819Y-90932142D02*
X105224819Y-91027380D01*
X105224819Y-91027380D02*
X105177200Y-91170237D01*
X105177200Y-91170237D02*
X105081961Y-91265475D01*
X105081961Y-91265475D02*
X104986723Y-91313094D01*
X104986723Y-91313094D02*
X104796247Y-91360713D01*
X104796247Y-91360713D02*
X104653390Y-91360713D01*
X104653390Y-91360713D02*
X104462914Y-91313094D01*
X104462914Y-91313094D02*
X104367676Y-91265475D01*
X104367676Y-91265475D02*
X104272438Y-91170237D01*
X104272438Y-91170237D02*
X104224819Y-91027380D01*
X104224819Y-91027380D02*
X104224819Y-90932142D01*
X104224819Y-90932142D02*
X104272438Y-90789285D01*
X104272438Y-90789285D02*
X104320057Y-90741666D01*
X105224819Y-89789285D02*
X105224819Y-90360713D01*
X105224819Y-90074999D02*
X104224819Y-90074999D01*
X104224819Y-90074999D02*
X104367676Y-90170237D01*
X104367676Y-90170237D02*
X104462914Y-90265475D01*
X104462914Y-90265475D02*
X104510533Y-90360713D01*
D11*
%TO.C,U3*%
X125625000Y-106000000D02*
X125265000Y-106000000D01*
X125625000Y-105640000D01*
X125625000Y-106000000D01*
G36*
X125625000Y-106000000D02*
G01*
X125265000Y-106000000D01*
X125625000Y-105640000D01*
X125625000Y-106000000D01*
G37*
X128325000Y-108200000D02*
X128325000Y-107560000D01*
X128325000Y-106640000D02*
X128325000Y-106000000D01*
X128175000Y-106000000D02*
X128325000Y-106000000D01*
X128050000Y-108175000D02*
X128200000Y-108175000D01*
X125625000Y-108200000D02*
X125775000Y-108200000D01*
X125625000Y-108200000D02*
X125625000Y-107560000D01*
X125625000Y-106640000D02*
X125625000Y-106200000D01*
D12*
%TO.C,J1*%
X119470000Y-66870000D02*
X119470000Y-65970000D01*
X119470000Y-66870000D02*
X118670000Y-66870000D01*
X119470000Y-62830000D02*
X119470000Y-63730000D01*
X119470000Y-62830000D02*
X118670000Y-62830000D01*
X110930000Y-66870000D02*
X111730000Y-66870000D01*
X110930000Y-66870000D02*
X110930000Y-65970000D01*
X110930000Y-62830000D02*
X111730000Y-62830000D01*
X110930000Y-62830000D02*
X110930000Y-63730000D01*
X110780000Y-62680000D02*
X111280000Y-62680000D01*
X110780000Y-62680000D02*
X110780000Y-63180000D01*
%TO.C,R8*%
X104787742Y-67922500D02*
X105262258Y-67922500D01*
X104787742Y-66877500D02*
X105262258Y-66877500D01*
%TO.C,R7*%
X119777500Y-71987742D02*
X119777500Y-72462258D01*
X120822500Y-71987742D02*
X120822500Y-72462258D01*
%TO.C,U5*%
X133400000Y-70790000D02*
X137160000Y-70790000D01*
X133400000Y-77610000D02*
X137160000Y-77610000D01*
X137160000Y-70790000D02*
X137160000Y-72050000D01*
X137160000Y-77610000D02*
X137160000Y-76350000D01*
X132120000Y-70890000D02*
X131880000Y-70560000D01*
X132360000Y-70560000D01*
X132120000Y-70890000D01*
G36*
X132120000Y-70890000D02*
G01*
X131880000Y-70560000D01*
X132360000Y-70560000D01*
X132120000Y-70890000D01*
G37*
%TO.C,U4*%
X135475000Y-81885000D02*
X133525000Y-81885000D01*
X135475000Y-81885000D02*
X137425000Y-81885000D01*
X135475000Y-92005000D02*
X133525000Y-92005000D01*
X135475000Y-92005000D02*
X137425000Y-92005000D01*
X132775000Y-81940000D02*
X132535000Y-81610000D01*
X133015000Y-81610000D01*
X132775000Y-81940000D01*
G36*
X132775000Y-81940000D02*
G01*
X132535000Y-81610000D01*
X133015000Y-81610000D01*
X132775000Y-81940000D01*
G37*
D13*
%TO.C,U2*%
X124180000Y-99350000D02*
G75*
G02*
X123980000Y-99350000I-100000J0D01*
G01*
X123980000Y-99350000D02*
G75*
G02*
X124180000Y-99350000I100000J0D01*
G01*
D14*
X125080000Y-98600000D02*
X125080000Y-98895000D01*
X125080000Y-98600000D02*
X125375000Y-98600000D01*
X125080000Y-102600000D02*
X125375000Y-102600000D01*
X125080000Y-102600000D02*
X125080000Y-102305000D01*
X129080000Y-102600000D02*
X129080000Y-102305000D01*
X129080000Y-102600000D02*
X128785000Y-102600000D01*
X129080000Y-98600000D02*
X128785000Y-98600000D01*
X129080000Y-98600000D02*
X129080000Y-98895000D01*
%TO.C,U1*%
X107200000Y-74175000D02*
X122600000Y-74175000D01*
X122600000Y-74175000D02*
X122600000Y-79225000D01*
X122600000Y-94675000D02*
X107200000Y-94675000D01*
X107200000Y-79225000D02*
X107200000Y-74175000D01*
D13*
X106550000Y-81000000D02*
G75*
G02*
X106350000Y-81000000I-100000J0D01*
G01*
X106350000Y-81000000D02*
G75*
G02*
X106550000Y-81000000I100000J0D01*
G01*
D12*
%TO.C,SW2*%
X111235000Y-97930000D02*
X111235000Y-99430000D01*
X112485000Y-101930000D02*
X116985000Y-101930000D01*
X116985000Y-95430000D02*
X112485000Y-95430000D01*
X118235000Y-99430000D02*
X118235000Y-97930000D01*
%TO.C,SW1*%
X111235000Y-105630000D02*
X111235000Y-107130000D01*
X112485000Y-109630000D02*
X116985000Y-109630000D01*
X116985000Y-103130000D02*
X112485000Y-103130000D01*
X118235000Y-107130000D02*
X118235000Y-105630000D01*
%TO.C,RV1*%
X104780000Y-110035000D02*
X109830000Y-110035000D01*
X104780000Y-110035000D02*
X104780000Y-100285000D01*
X109830000Y-110035000D02*
X109830000Y-100285000D01*
X104780000Y-100285000D02*
X109830000Y-100285000D01*
%TO.C,R11*%
X126425242Y-87477500D02*
X126899758Y-87477500D01*
X126425242Y-88522500D02*
X126899758Y-88522500D01*
%TO.C,R10*%
X105627500Y-84712258D02*
X105627500Y-84237742D01*
X106672500Y-84712258D02*
X106672500Y-84237742D01*
%TO.C,R6*%
X105677500Y-87762258D02*
X105677500Y-87287742D01*
X106722500Y-87762258D02*
X106722500Y-87287742D01*
%TO.C,R5*%
X121737742Y-104877500D02*
X122212258Y-104877500D01*
X121737742Y-105922500D02*
X122212258Y-105922500D01*
%TO.C,R4*%
X126737742Y-108677500D02*
X127212258Y-108677500D01*
X126737742Y-109722500D02*
X127212258Y-109722500D01*
%TO.C,R3*%
X124937742Y-93477500D02*
X125412258Y-93477500D01*
X124937742Y-94522500D02*
X125412258Y-94522500D01*
%TO.C,R2*%
X123207500Y-100767258D02*
X123207500Y-100292742D01*
X124252500Y-100767258D02*
X124252500Y-100292742D01*
%TO.C,R1*%
X105937742Y-98777500D02*
X106412258Y-98777500D01*
X105937742Y-99822500D02*
X106412258Y-99822500D01*
%TO.C,J2*%
X101420000Y-68955000D02*
X102800000Y-68955000D01*
X101420000Y-70335000D02*
X101420000Y-68955000D01*
X101420000Y-71605000D02*
X101420000Y-109815000D01*
X101420000Y-71605000D02*
X104180000Y-71605000D01*
X101420000Y-109815000D02*
X104180000Y-109815000D01*
X104180000Y-71605000D02*
X104180000Y-109815000D01*
%TO.C,D1*%
X125215000Y-85765000D02*
X125215000Y-87235000D01*
X125215000Y-87235000D02*
X127500000Y-87235000D01*
X127500000Y-85765000D02*
X125215000Y-85765000D01*
%TO.C,C12*%
X108390000Y-72240580D02*
X108390000Y-71959420D01*
X109410000Y-72240580D02*
X109410000Y-71959420D01*
%TO.C,C11*%
X108390000Y-69215580D02*
X108390000Y-68934420D01*
X109410000Y-69215580D02*
X109410000Y-68934420D01*
%TO.C,C8*%
X137584420Y-80490000D02*
X137865580Y-80490000D01*
X137584420Y-81510000D02*
X137865580Y-81510000D01*
%TO.C,C7*%
X130490000Y-83615580D02*
X130490000Y-83334420D01*
X131510000Y-83615580D02*
X131510000Y-83334420D01*
%TO.C,C6*%
X105690000Y-81565580D02*
X105690000Y-81284420D01*
X106710000Y-81565580D02*
X106710000Y-81284420D01*
%TO.C,C5*%
X125459420Y-70090000D02*
X125740580Y-70090000D01*
X125459420Y-71110000D02*
X125740580Y-71110000D01*
%TO.C,C4*%
X130020000Y-100670580D02*
X130020000Y-100389420D01*
X131040000Y-100670580D02*
X131040000Y-100389420D01*
%TO.C,C2*%
X126960000Y-74300000D02*
X126960000Y-74800000D01*
X127210000Y-74550000D02*
X126710000Y-74550000D01*
X126595563Y-75040000D02*
X126460000Y-75040000D01*
X126595563Y-75040000D02*
X127660000Y-76104437D01*
X124204437Y-75040000D02*
X124340000Y-75040000D01*
X124204437Y-75040000D02*
X123140000Y-76104437D01*
X127660000Y-76104437D02*
X127660000Y-79560000D01*
X123140000Y-76104437D02*
X123140000Y-79560000D01*
X127660000Y-79560000D02*
X126460000Y-79560000D01*
X123140000Y-79560000D02*
X124340000Y-79560000D01*
%TO.C,C1*%
X105690000Y-90715580D02*
X105690000Y-90434420D01*
X106710000Y-90715580D02*
X106710000Y-90434420D01*
%TD*%
M02*
